<?xml version="1.0" encoding="UTF-8"?>
<svg version="1.1" xmlns="http://www.w3.org/2000/svg" width="1123" height="1081">
<path d="M0 0 C13.06259762 10.37465296 25.38442087 22.12097117 36 35 C36.91259595 36.06394317 37.82537566 37.12772874 38.73828125 38.19140625 C61.09549801 64.59731937 78.03380496 95.841273 95.15722656 125.78222656 C98.25768232 131.19611195 101.38000551 136.59735951 104.5 142 C105.75010331 144.16660706 107.00010335 146.33327371 108.25 148.5 C109.178125 150.10875 109.178125 150.10875 110.125 151.75 C115.75 161.5 115.75 161.5 117.62524414 164.75048828 C118.87435518 166.91557071 120.12354129 169.08060982 121.37280273 171.24560547 C124.51202309 176.68615706 127.64990563 182.12747216 130.78515625 187.5703125 C136.80747329 198.02206199 142.84669337 208.46299548 148.9375 218.875 C154.01275247 227.55262452 159.02244553 236.26613537 164 245 C170.6883723 256.73457028 177.46227448 268.41717256 184.28662109 280.07324219 C193.95407513 296.58698385 203.55759435 313.13659199 213.10888672 329.71777344 C216.23680148 335.14659942 219.36858448 340.57319281 222.5 346 C223.75001879 348.16665583 225.00001878 350.3333225 226.25 352.5 C227.178125 354.10875 227.178125 354.10875 228.125 355.75 C248.75 391.5 248.75 391.5 250.62670898 394.75317383 C251.87076792 396.90940213 253.11506942 399.06549049 254.35961914 401.22143555 C257.24154067 406.21447507 260.1212475 411.2087388 262.9919281 416.20825195 C272.75134975 433.25032453 272.75134975 433.25032453 283 450 C285.49094917 447.71643875 287.10530797 445.36183351 288.79296875 442.44140625 C289.60205688 441.04849365 289.60205688 441.04849365 290.42749023 439.62744141 C291.00829346 438.61601074 291.58909668 437.60458008 292.1875 436.5625 C292.80117432 435.50208496 293.41484863 434.44166992 294.04711914 433.34912109 C299.385495 424.10939153 304.67732767 414.84274237 309.96337891 405.57299805 C316.31517329 394.43477181 322.72145344 383.32834794 329.13671875 372.2265625 C331.0203505 368.96475993 332.90122321 365.70138156 334.78125 362.4375 C340.80439828 351.98286894 346.84543036 341.53963694 352.9375 331.125 C360.12216385 318.83565913 367.18850021 306.4807412 374.22460938 294.10595703 C375.81680208 291.3204956 377.42650568 288.54647423 379.046875 285.77734375 C379.69789185 284.65392578 379.69789185 284.65392578 380.36206055 283.5078125 C381.13412343 282.17629058 381.91365554 280.84905688 382.70239258 279.52734375 C383.80938679 277.66057046 383.80938679 277.66057046 385 275 C383.77262189 271.31786568 382.86361143 271.04944575 379.56640625 269.171875 C378.14811523 268.35493164 378.14811523 268.35493164 376.70117188 267.52148438 C375.66541016 266.93689453 374.62964844 266.35230469 373.5625 265.75 C372.48935547 265.13447266 371.41621094 264.51894531 370.31054688 263.88476562 C368.03088173 262.57775761 365.74907776 261.2744742 363.46533203 259.97460938 C359.04476409 257.45568916 354.63853745 254.91236531 350.23291016 252.36743164 C348.06533531 251.11537153 345.89703222 249.86457139 343.72802734 248.61499023 C336.36589004 244.37343643 329.022194 240.10130554 321.6875 235.8125 C313.34419704 230.93518077 304.97393237 226.10852113 296.57641602 221.32519531 C290.91067271 218.09684542 285.26292551 214.83915194 279.625 211.5625 C272.71756212 207.54991048 265.7738213 203.60578155 258.8125 199.6875 C247.76449611 193.46570483 236.80791066 187.09296164 225.86962891 180.68066406 C220.9171573 177.78013535 215.95840744 174.89036619 211 172 C211.4923679 167.64535285 214.31314104 164.89566654 217.08984375 161.73828125 C217.88514748 160.82360832 217.88514748 160.82360832 218.69651794 159.89045715 C224.70979439 153.06214074 231.09365462 146.60482235 237.5456543 140.19360352 C239.57122482 138.17882165 241.58578384 136.15346725 243.59960938 134.12695312 C250.76004511 126.95890805 257.99987846 120.2321295 266 114 C267.13525234 113.07198713 268.26843994 112.14143549 269.3984375 111.20703125 C295.82721478 89.94608575 325.03220941 73.44292868 358 65 C358.74596436 64.80349854 359.49192871 64.60699707 360.26049805 64.40454102 C367.32553783 62.75302096 374.38057732 62.6614485 381.60229492 62.68432617 C383.66705075 62.68746887 385.73034376 62.66400865 387.79492188 62.63867188 C406.67053768 62.5472836 424.03183735 66.97598835 439 79 C439.83144531 79.66773437 440.66289063 80.33546875 441.51953125 81.0234375 C461.41403018 97.95362553 470.84950077 123.44878721 473 149 C476.25684216 210.28199325 449.95748706 265.54227423 419.46875 317.1015625 C416.06768973 322.85793293 412.77295436 328.67008114 409.5 334.5 C404.53937861 343.32063782 399.48058018 352.07913695 394.36889648 360.81298828 C390.07418373 368.15218176 385.8088749 375.5077355 381.5625 382.875 C380.94076904 383.95354248 380.31903809 385.03208496 379.6784668 386.14331055 C377.78518248 389.42860776 375.89248083 392.71423989 374 396 C366.12337411 409.67554314 358.22879908 423.33960958 350.26708984 436.96582031 C344.09915772 447.52903161 337.99210078 458.12711576 331.88671875 468.7265625 C330.0203162 471.9647516 328.15126237 475.20139438 326.28125 478.4375 C319.82666336 489.60938934 313.39526659 500.79406618 307 512 C299.99200141 524.27957699 292.93725374 536.53174196 285.86328125 548.7734375 C283.9796495 552.03524007 282.09877679 555.29861844 280.21875 558.5625 C270.73261928 575.02862163 261.17554837 591.45237105 251.57421875 607.8515625 C244.35586589 620.19096808 237.2176904 632.57319351 230.15283203 645.00097656 C229.50942871 646.13116211 228.86602539 647.26134766 228.203125 648.42578125 C227.63239258 649.43036377 227.06166016 650.43494629 226.47363281 651.4699707 C225.378021 653.3509888 224.20748873 655.18876691 223 657 C232.56235019 657.15602014 242.12487067 657.2998106 251.6875 657.4375 C252.83509922 657.45403185 252.83509922 657.45403185 254.00588226 657.47089767 C292.04391906 658.01457087 330.08429782 658.28613553 368.125 658.5625 C368.888111 658.56804948 369.65122199 658.57359897 370.43745756 658.57931662 C390.29161012 658.72361785 410.14578962 658.86387358 430 659 C429.9550515 657.35742722 429.9550515 657.35742722 429.90919495 655.68167114 C428.85632189 616.05761969 428.87639053 576.44423441 428.92797339 536.80982327 C428.93940624 527.86093303 428.94471247 518.91204177 428.94967639 509.96314597 C428.95996754 491.64208902 428.97740965 473.32104573 429 455 C430.89191574 454.98786972 430.89191574 454.98786972 432.822052 454.97549438 C433.88625461 454.9686711 433.88625461 454.9686711 434.97195625 454.96170998 C439.69793847 455.05093782 444.28620373 456.3308265 448.875 457.375 C450.03757324 457.63829102 451.20014648 457.90158203 452.39794922 458.17285156 C476.56672637 463.81361076 500.28114836 470.94548894 523 481 C523.98532715 481.43425293 524.9706543 481.86850586 525.98583984 482.31591797 C548.99366822 492.58371942 569.65021714 505.66964952 588 523 C588.80953125 523.74507812 589.6190625 524.49015625 590.453125 525.2578125 C607.79216762 541.77897575 622.52686023 565.9639118 623.203125 590.44921875 C623.2242757 592.52859697 623.23973739 594.60803954 623.25 596.6875 C623.270625 597.71294922 623.29125 598.73839844 623.3125 599.79492188 C623.42705063 622.46162816 610.84433848 642.07210268 595.5625 657.875 C570.80972164 682.61184737 535.36544606 694.76015095 501.8125 701.6875 C500.90725586 701.87787842 500.00201172 702.06825684 499.06933594 702.2644043 C478.37319485 706.31219102 457.70665931 707.44719019 436.66503906 707.43237305 C434.01680645 707.44142143 431.36860107 707.45163178 428.72038078 707.46324825 C423.04404095 707.48585444 417.36776154 707.49788174 411.69137955 707.50236893 C403.36164478 707.50896391 395.03201474 707.53223307 386.70232286 707.55884856 C372.09691168 707.60499528 357.49150421 707.63495321 342.88603999 707.6577509 C330.29475444 707.67750505 317.70350234 707.70387894 305.11224365 707.73654175 C304.28104994 707.73869139 303.44985622 707.74084103 302.59347482 707.74305581 C299.23541811 707.75175262 295.87736148 707.76048023 292.51930497 707.76925164 C206.0558201 707.99477659 119.59144396 708.13688853 13 708 C15.00649501 711.62521115 17.01464029 715.24950212 19.02416992 718.87303162 C19.70428635 720.09990576 20.38398948 721.32700912 21.06323242 722.55436707 C27.28358196 733.79306763 33.72488502 744.89346872 40.22753906 755.97119141 C48.92873656 770.83993193 57.46750961 785.80377031 66.00769043 800.76538086 C75.63891761 817.6366662 85.34332324 834.46547006 95.125 851.25 C95.6912207 852.22179199 96.25744141 853.19358398 96.84082031 854.19482422 C99.79245218 859.25078207 102.76513712 864.29317929 105.765625 869.3203125 C106.67417236 870.84543457 106.67417236 870.84543457 107.60107422 872.40136719 C108.76023511 874.34446927 109.92316399 876.28532983 111.09033203 878.22363281 C111.60450684 879.08569336 112.11868164 879.94775391 112.6484375 880.8359375 C113.10395996 881.59438965 113.55948242 882.3528418 114.02880859 883.13427734 C115 885 115 885 115 887 C118.36622141 885.40104483 121.55904479 883.68062603 124.6875 881.6640625 C128.84335965 879.04760412 133.12903858 876.79416943 137.5 874.5625 C148.11134291 869.05344972 158.39742229 863.02837092 168.69140625 856.95214844 C173.96662333 853.8396458 179.24987698 850.74086476 184.53341675 847.64251709 C185.76278662 846.92153938 186.99205476 846.20038819 188.22122192 845.47906494 C197.96926421 839.75890374 207.74678514 834.09163217 217.54248047 828.45336914 C224.70944813 824.32675071 231.86007782 820.17322316 239 816 C248.62065371 810.37721794 258.26481526 804.79627324 267.921875 799.23632812 C269.4378125 798.36331055 269.4378125 798.36331055 270.984375 797.47265625 C271.97115234 796.90691895 272.95792969 796.34118164 273.97460938 795.75830078 C276.09233188 794.52751984 278.19686428 793.2738905 280.29101562 792.00341797 C281.35513672 791.36162598 282.41925781 790.71983398 283.515625 790.05859375 C284.47243164 789.47263428 285.42923828 788.8866748 286.41503906 788.28295898 C289 787 289 787 293 787 C308.2586891 822.38003736 317.06913193 863.47015635 318 902 C318.02046387 902.70640625 318.04092773 903.4128125 318.06201172 904.140625 C319.09870146 943.89467798 311.07694542 983.48168668 283.1875 1013.25 C267.14885788 1028.54491476 247.2892516 1035.68635051 225.35961914 1035.47241211 C181.02157203 1034.06588922 145.07773551 1004.84864708 116 974 C112.82822421 970.44950471 109.88894456 966.78253725 107 963 C105.99962469 961.72713567 104.9982435 960.45506151 103.99609375 959.18359375 C85.90772879 936.07323845 71.50922368 910.74388454 56.92333984 885.34667969 C53.789458 879.89361389 50.64430479 874.44706016 47.5 869 C43.73624737 862.47773279 39.97355372 855.95486228 36.21484375 849.4296875 C30.16944841 838.93767906 24.10889781 828.45518324 18 818 C11.25298806 806.45270484 4.56660682 794.87097973 -2.10888672 783.28222656 C-5.23680146 777.85340062 -8.36853731 772.42677993 -11.5 767 C-15.26363919 760.47766725 -19.02644622 753.95486238 -22.78515625 747.4296875 C-28.83055159 736.93767906 -34.89110219 726.45518324 -41 716 C-49.02267511 702.26944812 -56.95858259 688.48922034 -64.89550781 674.70898438 C-66.78398493 671.43068938 -68.67301666 668.15271515 -70.5625 664.875 C-71.18447266 663.79605469 -71.80644531 662.71710937 -72.44726562 661.60546875 C-76.58688448 654.43128049 -80.75524921 647.2744002 -84.9375 640.125 C-90.01275369 631.44737338 -95.02230332 622.73378487 -100 614 C-106.68607941 602.27107779 -113.44330253 590.58563582 -120.27685547 578.94189453 C-122.088328 575.84919915 -123.89008354 572.75096021 -125.69140625 569.65234375 C-126.87731936 567.62222944 -128.06350722 565.59227559 -129.25 563.5625 C-129.79938232 562.61391113 -130.34876465 561.66532227 -130.91479492 560.68798828 C-131.42244385 559.82286621 -131.93009277 558.95774414 -132.453125 558.06640625 C-132.89817383 557.30271729 -133.34322266 556.53902832 -133.80175781 555.75219727 C-134.89393217 553.85059354 -134.89393217 553.85059354 -137 553 C-137.24363281 553.84046875 -137.48726563 554.6809375 -137.73828125 555.546875 C-139.14879975 559.40724141 -141.05985465 562.75814098 -143.1875 566.25 C-144.09498405 567.76618915 -145.00114806 569.28316888 -145.90625 570.80078125 C-146.40125 571.62916504 -146.89625 572.45754883 -147.40625 573.31103516 C-150.37902329 578.32667931 -153.27935172 583.38420635 -156.1875 588.4375 C-156.82381348 589.54174316 -157.46012695 590.64598633 -158.11572266 591.78369141 C-160.07779018 595.18875838 -162.03897026 598.59433526 -164 602 C-166.51995294 606.37550788 -169.04069141 610.75056134 -171.5625 615.125 C-172.18415039 616.20338135 -172.80580078 617.2817627 -173.44628906 618.39282227 C-177.58622005 625.56758802 -181.7549179 632.72503343 -185.9375 639.875 C-191.01275247 648.55262452 -196.02244553 657.26613537 -201 666 C-206.00091325 674.77396853 -211.03183082 683.52911512 -216.125 692.25 C-216.68461426 693.2100293 -217.24422852 694.17005859 -217.82080078 695.15917969 C-220.85099601 700.35005863 -223.90554025 705.52531046 -226.984375 710.6875 C-227.63519043 711.78545898 -228.28600586 712.88341797 -228.95654297 714.01464844 C-230.20873374 716.12638578 -231.46787294 718.23402277 -232.73486328 720.33691406 C-233.29415527 721.28276367 -233.85344727 722.22861328 -234.4296875 723.203125 C-234.92710449 724.03489258 -235.42452148 724.86666016 -235.93701172 725.72363281 C-237.28207259 728.18533124 -237.28207259 728.18533124 -237 732 C-236.03682861 732.53403442 -236.03682861 732.53403442 -235.05419922 733.07885742 C-222.73572689 739.91844253 -210.48086096 746.8346688 -198.37109375 754.03857422 C-175.97521729 767.35212292 -153.27437822 780.15573827 -130.63838196 793.05580139 C-117.93509001 800.29618204 -105.25702739 807.57570734 -92.63769531 814.96191406 C-82.80051028 820.71498502 -72.90686914 826.36796991 -63 832 C-63.88234648 836.38177259 -66.22833599 839.0275588 -69.125 842.3125 C-69.67760498 842.94478516 -70.23020996 843.57707031 -70.79956055 844.22851562 C-76.5708296 850.71078792 -82.67919007 856.86338086 -88.8125 863 C-89.30550598 863.49400299 -89.79851196 863.98800598 -90.30645752 864.49697876 C-96.02606779 870.21528237 -101.84964735 875.74569792 -108 881 C-109.16860063 882.03297248 -110.3352981 883.06810235 -111.5 884.10546875 C-137.17119069 906.79290659 -166.26301782 925.32051927 -199 936 C-199.79954102 936.2695752 -200.59908203 936.53915039 -201.42285156 936.81689453 C-213.22692433 940.66103147 -224.79675129 941.44433119 -237.125 941.4375 C-237.8320105 941.43790283 -238.539021 941.43830566 -239.26745605 941.4387207 C-252.65174249 941.39356927 -263.85446533 939.73624118 -276 934 C-277.06476563 933.50628906 -278.12953125 933.01257813 -279.2265625 932.50390625 C-298.47564917 922.92530346 -312.20882324 905.33519443 -319.18212891 885.16259766 C-320.25330267 881.80636381 -321.15554004 878.41957189 -322 875 C-322.16371094 874.35885254 -322.32742188 873.71770508 -322.49609375 873.05712891 C-336.7339389 814.50251987 -308.93242994 750.36337227 -279.60546875 701.1015625 C-275.95470541 694.96401874 -272.46632716 688.74307699 -269 682.5 C-263.90431662 673.34507949 -258.69137243 664.26800435 -253.390625 655.23046875 C-248.87169415 647.5181601 -244.42420903 639.76682396 -240 632 C-234.48768825 622.3250039 -228.91575176 612.68717423 -223.2890625 603.078125 C-218.80833624 595.41425836 -214.39517311 587.71307726 -210 580 C-201.81629521 565.64121948 -193.5257042 551.34563654 -185.1171875 537.1171875 C-184.67165527 536.36268311 -184.22612305 535.60817871 -183.76708984 534.83081055 C-182.96981591 533.48220403 -182.17089832 532.13456653 -181.36962891 530.78833008 C-179.20816708 527.13595414 -177.14237416 523.44291375 -175.12109375 519.7109375 C-172.04945499 514.05048471 -168.82518557 508.48946804 -165.5625 502.9375 C-160.53447376 494.34932739 -155.53169912 485.74735167 -150.5625 477.125 C-149.62966187 475.50646118 -149.62966187 475.50646118 -148.67797852 473.85522461 C-147.41553792 471.66431294 -146.15324964 469.4733135 -144.89111328 467.28222656 C-141.76319852 461.85340058 -138.63141552 456.42680719 -135.5 451 C-134.24998121 448.83334417 -132.99998122 446.6666775 -131.75 444.5 C-129.25 440.16666667 -126.75 435.83333333 -124.25 431.5 C-123.63116943 430.42733887 -123.01233887 429.35467773 -122.37475586 428.24951172 C-121.12564482 426.08442929 -119.87645871 423.91939018 -118.62719727 421.75439453 C-115.48797691 416.31384294 -112.35009437 410.87252784 -109.21484375 405.4296875 C-103.06254325 394.75188528 -96.89638297 384.08252162 -90.6875 373.4375 C-90.16148193 372.53563965 -89.63546387 371.6337793 -89.09350586 370.70458984 C-84.08258224 362.12437891 -79.0379554 353.56452418 -74 345 C-142.64 345 -211.28 345 -282 345 C-281.814375 362.881875 -281.62875 380.76375 -281.4375 399.1875 C-281.33543216 410.07813816 -281.23383142 420.96856625 -281.15625 431.859375 C-281.14919068 432.84472937 -281.14919068 432.84472937 -281.14198875 433.84998989 C-280.95307113 460.54919572 -281.06298874 487.24019708 -281.4375 513.9375 C-281.45672075 515.30932245 -281.45672075 515.30932245 -281.4763298 516.70885849 C-281.62905272 527.47296465 -281.80172518 538.23663566 -282 549 C-313.92870128 546.38085478 -345.77046242 535.74910648 -375 523 C-375.91571777 522.60200195 -376.83143555 522.20400391 -377.77490234 521.79394531 C-396.0445355 513.74224992 -413.49536837 503.63102079 -429 491 C-429.5573584 490.54802246 -430.1147168 490.09604492 -430.68896484 489.63037109 C-451.26522253 472.8339983 -468.39526628 451.55003672 -474 425 C-474.26417725 423.7929541 -474.26417725 423.7929541 -474.53369141 422.56152344 C-477.52882029 408.1859716 -476.82678564 396.84081577 -472 383 C-471.61199219 381.84757812 -471.22398437 380.69515625 -470.82421875 379.5078125 C-459.99477659 350.85258753 -431.86726669 330.42067926 -405 318 C-386.85977458 310.05799274 -367.98452918 304.97311635 -348.5625 301.3125 C-347.55300293 301.12212158 -346.54350586 300.93174316 -345.50341797 300.7355957 C-342.70490706 300.23419037 -339.90242899 299.77982894 -337.09384382 299.33920074 C-335.70904144 299.11486405 -334.32607618 298.87884433 -332.94535506 298.6306231 C-312.71983672 295.02911542 -292.28523191 295.55918516 -271.82272136 295.58191919 C-266.39493234 295.58462787 -260.96718496 295.56995971 -255.53941345 295.55747986 C-246.16038514 295.53819537 -236.78139683 295.52952416 -227.40234947 295.52817917 C-213.84004832 295.52613104 -200.27781469 295.50660982 -186.71553633 295.48278125 C-164.70286142 295.44448099 -142.6901911 295.41860684 -120.67749023 295.40136719 C-99.31322542 295.38459506 -77.94897174 295.36441821 -56.5847168 295.33789062 C-55.26566421 295.3362572 -53.94661162 295.33462378 -52.58758774 295.33294086 C-38.19684441 295.31498563 -23.80610346 295.29564598 -9.41536427 295.27463722 C-8.15222934 295.2727958 -6.88909441 295.27095438 -5.58768267 295.26905716 C-0.53984067 295.26167917 4.5080013 295.25428554 9.55584302 295.24671336 C24.34178518 295.224567 39.12771751 295.20676735 53.91367313 295.19676055 C63.16951573 295.190395 72.42535116 295.18085838 81.68118808 295.16879199 C87.02627638 295.1619895 92.37135307 295.15692821 97.71644592 295.15620613 C102.60137767 295.15554135 107.48628275 295.15040096 112.37120643 295.14160486 C114.14510392 295.13924557 115.91900465 295.13860947 117.69290332 295.13980167 C120.08998074 295.14118818 122.48697017 295.13653786 124.88403797 295.13028526 C125.58453883 295.13216547 126.28503968 295.13404568 127.00676784 295.13598287 C130.62577954 295.16047537 130.62577954 295.16047537 134 294 C126.0055857 279.60491316 117.8882509 265.29619789 109.5625 251.08984375 C105.8678669 244.78429581 102.21147319 238.45705564 98.5625 232.125 C97.93996338 231.04484619 97.31742676 229.96469238 96.67602539 228.85180664 C95.41423174 226.66203666 94.15259466 224.47217645 92.89111328 222.28222656 C89.76319852 216.85340058 86.63141552 211.42680719 83.5 206 C82.24998121 203.83334417 80.99998122 201.6666775 79.75 199.5 C78.821875 197.89125 78.821875 197.89125 77.875 196.25 C72.25 186.50000001 72.25 186.50000001 70.37451172 183.24902344 C69.12628966 181.08552524 67.87791761 178.92211357 66.62939453 176.75878906 C63.47594744 171.29434983 60.32523904 165.82836355 57.1796875 160.359375 C54.6803396 156.01404499 52.17338301 151.67325368 49.66015625 147.3359375 C47.18459199 143.06326275 44.73852996 138.77533233 42.30859375 134.4765625 C41.14365624 132.44246369 39.97831022 130.40859876 38.8125 128.375 C38.01948486 126.9513916 38.01948486 126.9513916 37.21044922 125.49902344 C36.71432129 124.64083008 36.21819336 123.78263672 35.70703125 122.8984375 C35.2788208 122.14224121 34.85061035 121.38604492 34.40942383 120.60693359 C33.94431396 120.07664551 33.4792041 119.54635742 33 119 C28.64101499 119 27.2612237 119.69685027 23.546875 121.7890625 C22.465271 122.39363281 21.38366699 122.99820313 20.26928711 123.62109375 C19.09601023 124.28874421 17.92291933 124.95672159 16.75 125.625 C15.53097316 126.31171798 14.31164926 126.99790887 13.09204102 127.68359375 C3.34555085 133.17783395 -6.3249931 138.80309072 -15.97265625 144.46875 C-22.29523129 148.18047956 -28.64596651 151.84245977 -35 155.5 C-43.34813745 160.30824958 -51.68248436 165.13897173 -60 170 C-69.4039376 175.49596881 -78.83203603 180.94881776 -88.27148438 186.38354492 C-94.6780209 190.07478859 -101.0701356 193.78938226 -107.44995117 197.52661133 C-115.66732976 202.33811572 -123.89375391 207.13355916 -132.1875 211.8125 C-132.91195313 212.22733643 -133.63640625 212.64217285 -134.3828125 213.06958008 C-137.91059618 215.04126244 -140.91778664 216.5164757 -145 217 C-148.38529106 210.70126154 -150.67893106 204.39829162 -152.75 197.5625 C-153.08999023 196.44214355 -153.42998047 195.32178711 -153.78027344 194.16748047 C-163.62009885 161.06536806 -170.22041954 127.73782405 -170.25 93.0625 C-170.25067474 92.34278015 -170.25134949 91.6230603 -170.25204468 90.88153076 C-170.20370787 58.19410647 -163.59368835 20.43165107 -139.9921875 -4.02734375 C-139.33476562 -4.67832031 -138.67734375 -5.32929687 -138 -6 C-137.13375 -6.9075 -136.2675 -7.815 -135.375 -8.75 C-134.59125 -9.4925 -133.8075 -10.235 -133 -11 C-132.55011719 -11.44472656 -132.10023438 -11.88945312 -131.63671875 -12.34765625 C-93.21144512 -48.10318383 -36.11290197 -28.21931525 0 0 Z " fill="#BB6CD7" transform="translate(487,41)"/>
<path d="M0 0 C93.52158273 0 93.52158273 0 108 7 C108.79277344 7.35835938 109.58554687 7.71671875 110.40234375 8.0859375 C130.82992966 17.7027157 145.78581293 32.54868396 153.90234375 53.76171875 C161.61275725 76.50881053 162.27725384 102.03604184 152.375 124.25 C151.58333333 125.83333333 150.79166667 127.41666667 150 129 C149.69707031 129.81339844 149.39414062 130.62679687 149.08203125 131.46484375 C146.93323932 136.49937791 143.31287114 140.68045531 140 145 C139.21302734 146.05960938 139.21302734 146.05960938 138.41015625 147.140625 C127.17074049 161.21134396 109.4105951 169.16968621 92.3125 173.25 C91.63670898 173.41298584 90.96091797 173.57597168 90.26464844 173.74389648 C62.05682452 180.13653706 23.09660728 176 0 176 C0 117.92 0 59.84 0 0 Z " fill="#321454" transform="translate(494,426)"/>
<path d="M0 0 C3.80698002 8.82717345 6.99058973 17.74880651 9.8125 26.9375 C10.26508179 28.39265015 10.26508179 28.39265015 10.72680664 29.87719727 C12.35249698 35.27125915 13.48975957 40.38735524 14 46 C9.72002382 39.58003573 8.60135903 32.57712384 8 25 C7.01 25 6.02 25 5 25 C5.46019531 26.92199219 5.46019531 26.92199219 5.9296875 28.8828125 C7.50650063 36.79468789 7.73622033 44.83675015 8.125 52.875 C8.16669312 53.70080566 8.20838623 54.52661133 8.25134277 55.37744141 C10.24164559 94.953183 8.15978479 132.80697363 -12 168 C-12.66 168 -13.32 168 -14 168 C-14.433125 168.86625 -14.433125 168.86625 -14.875 169.75 C-15.24625 170.4925 -15.6175 171.235 -16 172 C-16.27199219 172.63292969 -16.54398438 173.26585937 -16.82421875 173.91796875 C-18.2101147 176.37206357 -19.77623047 177.76345441 -21.9375 179.5625 C-24.79754872 181.95146628 -24.79754872 181.95146628 -27.48046875 184.53125 C-38.12801076 194.82296156 -53.84150975 197.11653776 -67.9921875 196.96875 C-96.72285424 195.4445767 -121.21389172 176.28329921 -139.82617188 155.78295898 C-154.72829633 139.04419472 -167.13183281 120.55687177 -178 101 C-176.515 100.01 -176.515 100.01 -175 99 C-174.36457275 98.56042969 -173.72914551 98.12085938 -173.07446289 97.66796875 C-167.71365256 94.00096888 -162.23091146 90.92244925 -156.4375 88 C-145.48461335 82.36168175 -134.87752495 76.20513108 -124.27636719 69.93603516 C-119.01414723 66.82654155 -113.74141902 63.73499606 -108.46859741 60.64352417 C-107.23835459 59.92215072 -106.0082319 59.20057234 -104.77822876 58.47879028 C-95.03037441 52.75871141 -85.25303842 47.09153062 -75.45751953 41.45336914 C-68.29055187 37.32675071 -61.13992218 33.17322316 -54 29 C-44.37934629 23.37721794 -34.73518474 17.79627324 -25.078125 12.23632812 C-23.5621875 11.36331055 -23.5621875 11.36331055 -22.015625 10.47265625 C-21.02884766 9.90691895 -20.04207031 9.34118164 -19.02539062 8.75830078 C-16.90766812 7.52751984 -14.80313572 6.2738905 -12.70898438 5.00341797 C-11.64486328 4.36162598 -10.58074219 3.71983398 -9.484375 3.05859375 C-8.52756836 2.47263428 -7.57076172 1.8866748 -6.58496094 1.28295898 C-4 0 -4 0 0 0 Z " fill="#8F56CA" transform="translate(780,828)"/>
<path d="M0 0 C3.32947054 3.09165122 6.31979156 6.32712177 9 10 C9 10.66 9 11.32 9 12 C9.66 12 10.32 12 11 12 C25.22759485 37.46232995 25.90753424 65.88070777 18.26953125 93.88671875 C15.81969796 102.02804332 12.93852049 110.02480737 10 118 C9.47599609 119.45019531 9.47599609 119.45019531 8.94140625 120.9296875 C6.68383442 126.88967713 3.80487014 132.53838245 0.90454102 138.20605469 C-1.24233587 142.40880808 -3.18583601 146.64261547 -5 151 C-5.66 151 -6.32 151 -7 151 C-7.2165625 151.77730469 -7.433125 152.55460938 -7.65625 153.35546875 C-9.47250736 158.28153887 -11.95670443 162.72865333 -14.5 167.3125 C-14.99886719 168.23095703 -15.49773437 169.14941406 -16.01171875 170.09570312 C-16.49253906 170.96775391 -16.97335937 171.83980469 -17.46875 172.73828125 C-17.90638672 173.53274658 -18.34402344 174.32721191 -18.79492188 175.14575195 C-20 177 -20 177 -22 178 C-20.96516255 174.46430536 -19.73349602 171.43661117 -17.8125 168.3125 C-17.214375 167.219375 -16.61625 166.12625 -16 165 C-17.22737811 161.31786568 -18.13638857 161.04944575 -21.43359375 159.171875 C-22.37912109 158.62724609 -23.32464844 158.08261719 -24.29882812 157.52148438 C-25.33458984 156.93689453 -26.37035156 156.35230469 -27.4375 155.75 C-28.51064453 155.13447266 -29.58378906 154.51894531 -30.68945312 153.88476562 C-32.96911827 152.57775761 -35.25092224 151.2744742 -37.53466797 149.97460938 C-41.95523591 147.45568916 -46.36146255 144.91236531 -50.76708984 142.36743164 C-52.93466469 141.11537153 -55.10296778 139.86457139 -57.27197266 138.61499023 C-64.63410996 134.37343643 -71.977806 130.10130554 -79.3125 125.8125 C-87.65580296 120.93518077 -96.02606763 116.10852113 -104.42358398 111.32519531 C-110.08932729 108.09684542 -115.73707449 104.83915194 -121.375 101.5625 C-128.28243788 97.54991048 -135.2261787 93.60578155 -142.1875 89.6875 C-153.23550389 83.46570483 -164.19208934 77.09296164 -175.13037109 70.68066406 C-180.0828427 67.78013535 -185.04159256 64.89036619 -190 62 C-189.22025434 58.3455697 -187.97775106 56.52118297 -185.4375 53.75 C-184.79683594 53.04359375 -184.15617188 52.3371875 -183.49609375 51.609375 C-183.00238281 51.07828125 -182.50867188 50.5471875 -182 50 C-181.34 50.66 -180.68 51.32 -180 52 C-179.21302734 51.25169922 -179.21302734 51.25169922 -178.41015625 50.48828125 C-136.98625631 12.09707947 -55.440163 -39.36486821 0 0 Z " fill="#8F56CA" transform="translate(888,151)"/>
<path d="M0 0 C5.55522431 4.31530857 10.66121055 9.06485355 15.72265625 13.94140625 C16.35300781 14.52019531 16.98335937 15.09898438 17.6328125 15.6953125 C23.20118362 20.94774767 27.73869066 27.12377223 32.37792969 33.18652344 C33.59134279 34.77004075 34.81646203 36.34457124 36.04296875 37.91796875 C45.03277876 49.61438822 54.42266712 62.56568306 60.72265625 75.94140625 C60.39265625 76.60140625 60.06265625 77.26140625 59.72265625 77.94140625 C58.40265625 77.94140625 57.08265625 77.94140625 55.72265625 77.94140625 C53.0719966 79.0959104 53.0719966 79.0959104 50.26953125 80.73046875 C49.18792725 81.33503906 48.10632324 81.93960938 46.99194336 82.5625 C45.81866648 83.23015046 44.64557558 83.89812784 43.47265625 84.56640625 C42.25362941 85.25312423 41.03430551 85.93931512 39.81469727 86.625 C30.0682071 92.1192402 20.39766315 97.74449697 10.75 103.41015625 C4.42742496 107.12188581 -1.92331026 110.78386602 -8.27734375 114.44140625 C-16.6254812 119.24965583 -24.95982811 124.08037798 -33.27734375 128.94140625 C-42.68128135 134.43737506 -52.10937978 139.89022401 -61.54882812 145.32495117 C-67.95536465 149.01619484 -74.34747935 152.73078851 -80.72729492 156.46801758 C-88.94467351 161.27952197 -97.17109766 166.07496541 -105.46484375 170.75390625 C-106.18929688 171.16874268 -106.91375 171.5835791 -107.66015625 172.01098633 C-111.18793993 173.98266869 -114.19513039 175.45788195 -118.27734375 175.94140625 C-126.93354299 159.86560766 -126.93354299 159.86560766 -125.8828125 153.58203125 C-125.58310547 152.76992188 -125.58310547 152.76992188 -125.27734375 151.94140625 C-125.27734375 152.93140625 -125.27734375 153.92140625 -125.27734375 154.94140625 C-124.61734375 154.94140625 -123.95734375 154.94140625 -123.27734375 154.94140625 C-123.36298584 154.10407959 -123.44862793 153.26675293 -123.53686523 152.40405273 C-127.4281518 113.75130687 -130.61636347 74.67617681 -119.27734375 36.94140625 C-119.0659375 36.1628125 -118.85453125 35.38421875 -118.63671875 34.58203125 C-114.37124603 20.03567556 -106.08933639 7.39774498 -95.46484375 -3.18359375 C-94.68302734 -3.98152344 -93.90121094 -4.77945313 -93.09570312 -5.6015625 C-86.98162994 -11.72074351 -81.53251431 -15.56120668 -73.21484375 -18.24609375 C-72.23386719 -18.56964844 -71.25289063 -18.89320312 -70.2421875 -19.2265625 C-44.55475348 -26.43528904 -20.15549823 -15.25357407 0 0 Z " fill="#8E56CA" transform="translate(460.27734375,82.05859375)"/>
<path d="M0 0 C1 2 1 2 1 6 C1.64211426 6.35602295 2.28422852 6.7120459 2.94580078 7.07885742 C15.26427311 13.91844253 27.51913904 20.8346688 39.62890625 28.03857422 C62.02478271 41.35212292 84.72562178 54.15573827 107.36161804 67.05580139 C120.06490999 74.29618204 132.74297261 81.57570734 145.36230469 88.96191406 C155.19948972 94.71498502 165.09313086 100.36796991 175 106 C174.14699194 110.14904896 172.26787012 112.4775843 169.5625 115.75 C168.75941406 116.73484375 167.95632813 117.7196875 167.12890625 118.734375 C166.42636719 119.48203125 165.72382813 120.2296875 165 121 C164.34 121 163.68 121 163 121 C163 120.34 163 119.68 163 119 C162.11699219 119.70125 161.23398437 120.4025 160.32421875 121.125 C153.0011869 126.92265684 145.62840188 132.60628309 138 138 C137.44715332 138.39622559 136.89430664 138.79245117 136.32470703 139.20068359 C105.17567048 161.47670673 69.03337089 181.43346656 29.75 181.375 C28.66605957 181.37411377 27.58211914 181.37322754 26.46533203 181.37231445 C14.75406743 181.2008834 4.69826559 178.7502477 -6 174 C-6 173.34 -6 172.68 -6 172 C-7.65 171.67 -9.3 171.34 -11 171 C-11 170.34 -11 169.68 -11 169 C-11.55816406 168.76410156 -12.11632812 168.52820313 -12.69140625 168.28515625 C-25.74839164 161.01654679 -31.7271033 146.12784878 -35.72265625 132.54296875 C-36.3001808 130.03180643 -36.67592484 127.55659291 -37 125 C-37.15726563 123.91976562 -37.31453125 122.83953125 -37.4765625 121.7265625 C-38.53114075 111.53230608 -37.50950084 101.68598621 -36.25 91.5625 C-36.16554626 90.8690448 -36.08109253 90.1755896 -35.99407959 89.46112061 C-34.76220059 79.53479867 -33.01061945 70.22111415 -28.86206055 61.06640625 C-27.71527449 58.3174974 -26.79275878 55.50676698 -25.83203125 52.6875 C-23.34470668 45.58799017 -20.28259492 38.85125681 -16.97094727 32.10302734 C-16.05806439 30.24095236 -15.15821808 28.37297993 -14.25976562 26.50390625 C-11.19395237 20.17246243 -7.96591897 14.0159708 -4.24731445 8.04052734 C-2.65268506 5.43181478 -1.30810474 2.76155446 0 0 Z " fill="#8F56CA" transform="translate(249,767)"/>
<path d="M0 0 C38.36363636 0 38.36363636 0 47 5 C47 5.66 47 6.32 47 7 C47.66 7.185625 48.32 7.37125 49 7.5625 C56.68262123 11.24375601 63.78628649 18.46123502 66.96484375 26.4140625 C67.74662057 28.92663875 68.39225878 31.44024229 69 34 C69.20496094 34.69609375 69.40992188 35.3921875 69.62109375 36.109375 C73.72203068 51.15557117 70.77356446 66.88981207 63.53515625 80.40625 C58.11341247 89.56665171 49.81594075 95.12528654 40 99 C31 101 31 101 0 101 C0 67.67 0 34.34 0 0 Z " fill="#C570DB" transform="translate(538,463)"/>
<path d="M0 0 C0.94701601 -0.00226556 1.89403203 -0.00453111 2.86974549 -0.00686532 C6.03876612 -0.01318883 9.20774379 -0.01237703 12.37677002 -0.0115509 C14.65024369 -0.01454328 16.92371684 -0.01794599 19.19718933 -0.02172852 C25.36826183 -0.03056123 31.53932046 -0.03290623 37.71039867 -0.0335443 C42.85762753 -0.03449362 48.00485316 -0.03817189 53.15208077 -0.0417164 C64.59468101 -0.04939208 76.0372722 -0.05238525 87.47987434 -0.05171105 C88.50899151 -0.05165111 88.50899151 -0.05165111 89.55889893 -0.05158997 C90.24581331 -0.05154909 90.93272769 -0.0515082 91.64045766 -0.05146609 C102.79026443 -0.05105902 113.94003752 -0.06064554 125.08983454 -0.07472833 C136.53706403 -0.08907296 147.98427024 -0.09581627 159.43151021 -0.09513456 C165.85900585 -0.09487896 172.28646333 -0.09776442 178.71395111 -0.10831261 C184.751688 -0.11795125 190.78934987 -0.11810207 196.82708931 -0.11079597 C199.04835939 -0.10974508 201.26963404 -0.11214267 203.49089622 -0.11815643 C206.5115175 -0.12580785 209.53187514 -0.12127752 212.55249023 -0.11352539 C213.44138089 -0.11866895 214.33027154 -0.12381252 215.24609828 -0.12911195 C221.29400585 -0.09455922 221.29400585 -0.09455922 223.52227783 2.13371277 C223.08399658 2.82851746 222.64571533 3.52332214 222.19415283 4.23918152 C216.14485104 13.94019598 210.48715132 23.85281937 204.84844971 33.79679871 C203.07999159 36.91308756 201.30182361 40.02374467 199.52227783 43.13371277 C198.86227783 43.13371277 198.20227783 43.13371277 197.52227783 43.13371277 C197.43977783 43.81433777 197.35727783 44.49496277 197.27227783 45.19621277 C196.27866135 49.08787732 194.72631396 51.76283398 192.52227783 55.13371277 C191.53227783 55.46371277 190.54227783 55.79371277 189.52227783 56.13371277 C190.95462042 52.29966441 192.72622377 48.84309258 194.76055908 45.29386902 C195.08203415 44.73163132 195.40350922 44.16939362 195.73472595 43.59011841 C196.41994768 42.39324168 197.10673573 41.19726051 197.79498291 40.00212097 C198.79678671 38.26219547 199.79342482 36.51929881 200.78985596 34.77629089 C207.25964962 23.4961031 213.90537325 12.3315513 220.52227783 1.13371277 C151.88227783 1.13371277 83.24227783 1.13371277 12.52227783 1.13371277 C12.52227783 13.34371277 12.52227783 25.55371277 12.52227783 38.13371277 C12.19227783 38.13371277 11.86227783 38.13371277 11.52227783 38.13371277 C11.52227783 25.92371277 11.52227783 13.71371277 11.52227783 1.13371277 C7.89227783 1.46371277 4.26227783 1.79371277 0.52227783 2.13371277 C-2.38477308 2.1957762 -5.26153935 2.23247394 -8.16522217 2.19621277 C-8.87871826 2.19170105 -9.59221436 2.18718933 -10.32733154 2.18254089 C-12.0441669 2.17101851 -13.7609576 2.15309907 -15.47772217 2.13371277 C-15.47772217 1.80371277 -15.47772217 1.47371277 -15.47772217 1.13371277 C-10.27520821 0.07135427 -5.28251145 -0.00929637 0 0 Z " fill="#8860A1" transform="translate(192.47772216796875,384.8662872314453)"/>
<path d="M0 0 C0.33 0.66 0.66 1.32 1 2 C13.375 1.505 13.375 1.505 26 1 C26 1.66 26 2.32 26 3 C20.08134229 3.85758786 14.35772912 4.14040396 8.38220215 4.12025452 C7.44431681 4.12110894 6.50643147 4.12196337 5.54012537 4.12284368 C2.41410028 4.12448384 -0.71187052 4.11900117 -3.83789062 4.11352539 C-6.08534748 4.11324318 -8.33280443 4.11340192 -10.58026123 4.1139679 C-16.67051045 4.11425453 -22.76073993 4.10837931 -28.85098457 4.10139394 C-35.21978785 4.09513824 -41.58859159 4.09455484 -47.95739746 4.09336853 C-58.64347718 4.09061463 -69.32954912 4.08437047 -80.015625 4.07543945 C-91.01953088 4.0662524 -102.0234348 4.05917789 -113.02734375 4.05493164 C-114.04574356 4.05453756 -114.04574356 4.05453756 -115.08471709 4.05413551 C-118.49092025 4.05283042 -121.89712343 4.05156672 -125.30332661 4.05032361 C-153.5355561 4.03996656 -181.7677776 4.02228722 -210 4 C-210 3.01 -210 2.02 -210 1 C-208.99601921 1.0154612 -208.99601921 1.0154612 -207.97175598 1.03123474 C-198.58544434 1.17443308 -189.19901427 1.30835513 -179.8125 1.4375 C-179.0118021 1.44852123 -178.2111042 1.45954247 -177.38614273 1.47089767 C-138.82136569 1.99795441 -100.25467753 2.28182891 -61.6875 2.5625 C-60.9256617 2.56804948 -60.1638234 2.57359897 -59.3788991 2.57931662 C-39.5859597 2.72341729 -19.79299461 2.86368256 0 3 C0 2.01 0 1.02 0 0 Z " fill="#8E65A5" transform="translate(917,697)"/>
<path d="M0 0 C5.58761635 0 9.3681373 0.07953193 14.58203125 1.2421875 C16.35030273 1.63470703 16.35030273 1.63470703 18.15429688 2.03515625 C19.36150391 2.31230469 20.56871094 2.58945312 21.8125 2.875 C23.65231445 3.27912109 23.65231445 3.27912109 25.52929688 3.69140625 C34.60588403 5.73725602 34.60588403 5.73725602 38 8 C35.69 7.67 33.38 7.34 31 7 C31 7.66 31 8.32 31 9 C26.55516401 10.37943186 23.64726703 8.88155466 19.40234375 7.37109375 C18.07686523 6.90219727 18.07686523 6.90219727 16.72460938 6.42382812 C14.8618351 5.76461228 12.99985725 5.1031417 11.13867188 4.43945312 C10.25630859 4.12814453 9.37394531 3.81683594 8.46484375 3.49609375 C7.656521 3.20919678 6.84819824 2.9222998 6.01538086 2.62670898 C4.03346344 1.90102078 4.03346344 1.90102078 2 2 C2.00222061 3.25913712 2.00444122 4.51827423 2.00672913 5.81556702 C2.02722414 17.82899936 2.04209671 29.84242804 2.05181217 41.85587406 C2.05697526 48.02835394 2.06394933 54.20081942 2.07543945 60.37329102 C2.17187854 113.52606618 2.17187854 113.52606618 1 139 C0.67 139 0.34 139 0 139 C0 93.13 0 47.26 0 0 Z " fill="#7859A1" transform="translate(916,496)"/>
<path d="M0 0 C9.90145269 0.10778245 19.80283642 0.22047134 29.7041626 0.33933926 C34.30226362 0.39438825 38.90037118 0.44777829 43.49853516 0.49731445 C47.94006559 0.54522529 52.38152398 0.59757562 56.82296753 0.65294075 C58.51331781 0.6732439 60.20368775 0.69197587 61.89407349 0.70907402 C64.2706 0.73338691 66.64699377 0.76340141 69.0234375 0.79467773 C69.71468216 0.8004332 70.40592682 0.80618866 71.11811829 0.81211853 C75.820767 0.88198387 80.3499418 1.35302604 85 2 C85 2.33 85 2.66 85 3 C56.95 3 28.9 3 0 3 C0 2.01 0 1.02 0 0 Z " fill="#7B6480" transform="translate(707,698)"/>
<path d="M0 0 C1.87011719 0.3059082 1.87011719 0.3059082 4 1 C5.59489556 3.38334957 6.9333127 5.65700071 8.25 8.1875 C9.03284339 9.64377298 9.81671946 11.09949124 10.6015625 12.5546875 C11.19372559 13.66408691 11.19372559 13.66408691 11.79785156 14.79589844 C12.95448738 16.91655403 14.1605103 18.99625041 15.3984375 21.0703125 C15.96062988 22.01741089 15.96062988 22.01741089 16.53417969 22.98364258 C17.57393625 24.72688707 18.61886757 26.46704199 19.6640625 28.20703125 C21 31 21 31 20 34 C19.08528406 32.47547344 18.17060889 30.95092241 17.25610352 29.42626953 C16.45387505 28.08960496 15.65096698 26.75334807 14.84741211 25.41748047 C12.70519247 21.85392834 10.57495321 18.28419313 8.46875 14.69921875 C8.06519287 14.01609619 7.66163574 13.33297363 7.24584961 12.62915039 C6.46646603 11.30916694 5.69112752 9.9867854 4.92016602 8.66186523 C3.04053788 5.25556515 3.04053788 5.25556515 0 3 C-0.24363281 3.84046875 -0.48726563 4.6809375 -0.73828125 5.546875 C-2.14876104 9.40713547 -4.05960942 12.75832888 -6.1875 16.25 C-7.07554507 17.73227912 -7.96216246 19.21541412 -8.84765625 20.69921875 C-9.34023926 21.52341309 -9.83282227 22.34760742 -10.34033203 23.19677734 C-13.65164417 28.78967025 -16.88273086 34.42940462 -20.125 40.0625 C-20.80747836 41.24710341 -21.490013 42.4316744 -22.17260742 43.61621094 C-23.78240673 46.41042325 -25.39153909 49.20501712 -27 52 C-28 49 -28 49 -26.94287109 46.63769531 C-26.39195801 45.71053711 -25.84104492 44.78337891 -25.2734375 43.828125 C-24.65927979 42.78124512 -24.04512207 41.73436523 -23.41235352 40.65576172 C-22.74002686 39.53186035 -22.0677002 38.40795898 -21.375 37.25 C-20.69144691 36.09070149 -20.0090847 34.93070002 -19.32788086 33.77001953 C-18.27753251 31.98037954 -17.226593 30.19112918 -16.17204285 28.40396118 C-12.55615077 22.27210666 -9.05256802 16.07934659 -5.5625 9.875 C-5.00159668 8.88016602 -4.44069336 7.88533203 -3.86279297 6.86035156 C-2.57404265 4.57421348 -1.28640701 2.28745719 0 0 Z " fill="#7B6582" transform="translate(350,591)"/>
<path d="M0 0 C0.66 0.33 1.32 0.66 2 1 C-25.45026101 30.44625756 -25.45026101 30.44625756 -35 37 C-33.63886987 33.95418514 -32.10669904 31.86160974 -29.74365234 29.51660156 C-29.08311859 28.85621887 -28.42258484 28.19583618 -27.74203491 27.51544189 C-27.03052277 26.81425232 -26.31901062 26.11306274 -25.5859375 25.390625 C-24.49147812 24.30041046 -24.49147812 24.30041046 -23.37490845 23.18817139 C-21.0462612 20.87070802 -18.71075174 18.5603005 -16.375 16.25 C-14.79381347 14.67884556 -13.21307875 13.10723629 -11.6328125 11.53515625 C-7.7604331 7.68481347 -3.88239829 3.84023883 0 0 Z " fill="#996AA4" transform="translate(742,164)"/>
<path d="M0 0 C11.19164331 -1.02362591 21.31395895 2.01932386 32 5 C28.98968256 5.93423645 28.13349732 6.04449911 25 5 C25 5.66 25 6.32 25 7 C17.63739819 9.28494539 7.18415829 3.39471943 0 1 C0 0.67 0 0.34 0 0 Z " fill="#9D66B2" transform="translate(922,498)"/>
<path d="M0 0 C3.46150775 2.30767183 3.63362197 3.10139597 4.7890625 6.9453125 C5.09070313 7.94046875 5.39234375 8.935625 5.703125 9.9609375 C6.00734375 11.00507812 6.3115625 12.04921875 6.625 13.125 C7.09292969 14.65640625 7.09292969 14.65640625 7.5703125 16.21875 C9.24281456 21.82739913 10.4825815 27.16855365 11 33 C6.72002382 26.58003573 5.60135903 19.57712384 5 12 C4.01 12 3.02 12 2 12 C2.144375 12.64066406 2.28875 13.28132812 2.4375 13.94140625 C3.54035491 19.08040377 4.22839311 23.74695843 4 29 C3.67 29 3.34 29 3 29 C1.08566713 19.35399262 0.44116363 9.79847636 0 0 Z " fill="#9968AD" transform="translate(783,841)"/>
<path d="M0 0 C7.1178153 2.03807293 14.06707281 4.40344742 21 7 C21 7.33 21 7.66 21 8 C13.22870916 7.49890245 5.87783948 6.25623818 -1.6875 4.4375 C-2.68716797 4.20353516 -3.68683594 3.96957031 -4.71679688 3.72851562 C-7.14617428 3.15894867 -9.57375133 2.58272348 -12 2 C-7.63496852 0.81280737 -4.46726786 1.32990982 0 2 C0 1.34 0 0.68 0 0 Z " fill="#9364A9" transform="translate(184,582)"/>
<path d="M0 0 C1.87011719 0.3059082 1.87011719 0.3059082 4 1 C5.59489556 3.38334957 6.9333127 5.65700071 8.25 8.1875 C9.03284339 9.64377298 9.81671946 11.09949124 10.6015625 12.5546875 C11.19372559 13.66408691 11.19372559 13.66408691 11.79785156 14.79589844 C12.95448738 16.91655403 14.1605103 18.99625041 15.3984375 21.0703125 C15.96062988 22.01741089 15.96062988 22.01741089 16.53417969 22.98364258 C17.57393625 24.72688707 18.61886757 26.46704199 19.6640625 28.20703125 C21 31 21 31 20 34 C15.43472874 26.45462111 10.89573607 18.89573167 6.5 11.25 C5.8503125 10.12078125 5.200625 8.9915625 4.53125 7.828125 C3 5 3 5 2 2 C1.34 1.34 0.68 0.68 0 0 Z " fill="#86619F" transform="translate(350,591)"/>
<path d="M0 0 C3.35328711 1.11776237 3.58311383 1.48392095 5.26171875 4.37890625 C5.85629883 5.38920898 5.85629883 5.38920898 6.46289062 6.41992188 C6.86701172 7.12697266 7.27113281 7.83402344 7.6875 8.5625 C8.10322266 9.27341797 8.51894531 9.98433594 8.94726562 10.71679688 C9.97283111 12.47322511 10.98746671 14.23602691 12 16 C14.31248236 13.75462716 16.01236107 11.57421553 17.6875 8.8125 C18.12449219 8.09707031 18.56148437 7.38164062 19.01171875 6.64453125 C19.33785156 6.10183594 19.66398438 5.55914062 20 5 C20.33 5.66 20.66 6.32 21 7 C20.0625 9.625 20.0625 9.625 19 12 C18.34 12 17.68 12 17 12 C16.71125 12.763125 16.4225 13.52625 16.125 14.3125 C15 17 15 17 13 20 C9.59918042 18.86639347 9.41092754 18.48770245 7.7734375 15.5078125 C7.3815625 14.80269531 6.9896875 14.09757812 6.5859375 13.37109375 C6.18632813 12.62988281 5.78671875 11.88867188 5.375 11.125 C4.96765625 10.39152344 4.5603125 9.65804688 4.140625 8.90234375 C2.51101089 5.93989956 1.07251471 3.21754412 0 0 Z " fill="#7E6190" transform="translate(758,475)"/>
<path d="M0 0 C3.12890846 0.49756342 6.22320897 1.04831818 9.3203125 1.71875 C23.11029132 4.55036783 36.95965521 4.73030856 51 5 C51 5.33 51 5.66 51 6 C46.6441391 6.0500364 42.2884376 6.08601534 37.93237305 6.10986328 C36.45545532 6.11982183 34.97855678 6.13339361 33.50170898 6.15087891 C21.69683391 6.28698123 11.01702284 5.57310382 0 1 C0 0.67 0 0.34 0 0 Z " fill="#986BA3" transform="translate(215,976)"/>
<path d="M0 0 C0.33 0.99 0.66 1.98 1 3 C1.66 3 2.32 3 3 3 C3.33 2.01 3.66 1.02 4 0 C5.9078547 7.65541695 7.48400816 15.1177798 8 23 C5.00555535 19.55770586 3.68628213 15.77491115 2.3125 11.5 C2.08755859 10.83613281 1.86261719 10.17226562 1.63085938 9.48828125 C0.52377024 6.11653867 0 3.5899374 0 0 Z " fill="#A26CB4" transform="translate(334,234)"/>
<path d="M0 0 C0.33 0.66 0.66 1.32 1 2 C0.0625 4.625 0.0625 4.625 -1 7 C-1.66 7 -2.32 7 -3 7 C-3.18175781 7.7734375 -3.36351562 8.546875 -3.55078125 9.34375 C-7.13773036 24.20659554 -7.13773036 24.20659554 -11 30 C-10.78823025 23.96456221 -9.42082019 18.9068224 -7.1875 13.3125 C-6.8150415 12.3687854 -6.8150415 12.3687854 -6.43505859 11.40600586 C-4.70129027 7.21284689 -2.60590618 3.67992391 0 0 Z " fill="#8D679B" transform="translate(24,406)"/>
<path d="M0 0 C3.4820298 4.09038443 6.16617883 8.41332706 8.8125 13.0625 C9.44188477 14.12307617 9.44188477 14.12307617 10.08398438 15.20507812 C10.47521484 15.89150391 10.86644531 16.57792969 11.26953125 17.28515625 C11.62635986 17.90269775 11.98318848 18.52023926 12.35083008 19.15649414 C13.16260733 21.46177057 12.78245315 22.72551453 12 25 C9.79953501 21.21571557 7.61686959 17.42146632 5.4375 13.625 C4.80908203 12.54476562 4.18066406 11.46453125 3.53320312 10.3515625 C2.94345703 9.3203125 2.35371094 8.2890625 1.74609375 7.2265625 C1.19622803 6.27346191 0.6463623 5.32036133 0.07983398 4.33837891 C-0.27651123 3.56671387 -0.63285645 2.79504883 -1 2 C-0.67 1.34 -0.34 0.68 0 0 Z " fill="#825E98" transform="translate(372,625)"/>
<path d="M0 0 C0.66 0 1.32 0 2 0 C0.65788025 3.555782 -0.92244697 6.79105167 -2.8203125 10.08203125 C-3.35527344 11.01337891 -3.89023437 11.94472656 -4.44140625 12.90429688 C-4.99699219 13.86400391 -5.55257812 14.82371094 -6.125 15.8125 C-6.68832031 16.79154297 -7.25164063 17.77058594 -7.83203125 18.77929688 C-9.21844415 21.18789555 -10.60785055 23.59471395 -12 26 C-13 23 -13 23 -11.92016602 20.5480957 C-11.37030029 19.60023193 -10.82043457 18.65236816 -10.25390625 17.67578125 C-9.66416016 16.64775391 -9.07441406 15.61972656 -8.46679688 14.56054688 C-7.52416992 12.95276367 -7.52416992 12.95276367 -6.5625 11.3125 C-5.62567383 9.68731445 -5.62567383 9.68731445 -4.66992188 8.02929688 C-3.12226845 5.34748521 -1.56535683 2.67150439 0 0 Z " fill="#88629D" transform="translate(730,658)"/>
<path d="M0 0 C0.33 0 0.66 0 1 0 C1.30745279 6.57948979 0.20431358 12.16179597 -1.5 18.5 C-1.73847656 19.4178125 -1.97695312 20.335625 -2.22265625 21.28125 C-2.80650919 23.52324531 -3.39907967 25.76253068 -4 28 C-4.33 28 -4.66 28 -5 28 C-4.63131401 18.26668991 -2.54888362 9.34195486 0 0 Z " fill="#906A98" transform="translate(169,829)"/>
<path d="M0 0 C0.66 0.33 1.32 0.66 2 1 C0.29963138 2.92426057 -1.40967409 4.83914471 -3.125 6.75 C-3.599375 7.28882813 -4.07375 7.82765625 -4.5625 8.3828125 C-7.75719981 11.92288526 -10.92897015 14.5114773 -15 17 C-11.94269789 9.77364955 -5.86289574 4.9172674 0 0 Z " fill="#94659F" transform="translate(358,26)"/>
<path d="M0 0 C0.66 0.33 1.32 0.66 2 1 C0.46680021 2.75742269 -1.07697705 4.50562015 -2.625 6.25 C-3.91277344 7.71179688 -3.91277344 7.71179688 -5.2265625 9.203125 C-8.03398971 12.03427695 -10.62788983 13.92333391 -14 16 C-12.34136495 11.67495164 -9.128959 8.90581175 -5.875 5.75 C-5.31167969 5.19570313 -4.74835937 4.64140625 -4.16796875 4.0703125 C-2.78313972 2.70895515 -1.39216796 1.35385141 0 0 Z " fill="#9C6DA8" transform="translate(45,382)"/>
<path d="M0 0 C0.33 0 0.66 0 1 0 C1 7.92 1 15.84 1 24 C0.67 24 0.34 24 0 24 C-2.66514806 7.1070615 -2.66514806 7.1070615 0 0 Z " fill="#765E7D" transform="translate(12,436)"/>
<path d="M0 0 C1.79296875 0.16796875 1.79296875 0.16796875 4 1 C5.73828125 3.36328125 5.73828125 3.36328125 7.3125 6.3125 C7.84488281 7.27800781 8.37726563 8.24351562 8.92578125 9.23828125 C10.05065512 12.13022971 10.14513535 13.18069016 9 16 C8.51789063 15.01257813 8.03578125 14.02515625 7.5390625 13.0078125 C6.90125423 11.7134369 6.26322171 10.41917179 5.625 9.125 C5.30789063 8.47402344 4.99078125 7.82304688 4.6640625 7.15234375 C3.31109879 4.41822959 2.17227482 2.17227482 0 0 Z " fill="#7E5B99" transform="translate(350,591)"/>
<path d="M0 0 C2.47186455 2.96346786 3.66248361 5.54041689 4.6875 9.25 C4.93886719 10.14203125 5.19023438 11.0340625 5.44921875 11.953125 C5.72185547 12.96632813 5.72185547 12.96632813 6 14 C5.01 14.99 4.02 15.98 3 17 C2.49622232 14.73000175 1.99709981 12.45896997 1.5 10.1875 C1.08234375 8.29064453 1.08234375 8.29064453 0.65625 6.35546875 C0 3 0 3 0 0 Z " fill="#8C60A9" transform="translate(779,828)"/>
<path d="M0 0 C8 9.42857143 8 9.42857143 8 14 C7.34 14 6.68 14 6 14 C2 7.375 2 7.375 2 4 C1.34 4 0.68 4 0 4 C0 2.68 0 1.36 0 0 Z " fill="#83619A" transform="translate(750,459)"/>
<path d="M0 0 C0.66 0 1.32 0 2 0 C0.43358249 4.30764815 -1.68336156 8.06171464 -4 12 C-5 9 -5 9 -4.00390625 6.73828125 C-3.52824219 5.93777344 -3.05257812 5.13726563 -2.5625 4.3125 C-2.08941406 3.50425781 -1.61632812 2.69601562 -1.12890625 1.86328125 C-0.75636719 1.24839844 -0.38382813 0.63351562 0 0 Z " fill="#7B5991" transform="translate(722,672)"/>
<path d="M0 0 C3 1 3 1 4.203125 2.7421875 C4.54859375 3.44601562 4.8940625 4.14984375 5.25 4.875 C5.60578125 5.57367187 5.9615625 6.27234375 6.328125 6.9921875 C7 9 7 9 6 12 C4.99466333 10.37829621 3.99588093 8.75252763 3 7.125 C2.443125 6.22007812 1.88625 5.31515625 1.3125 4.3828125 C0 2 0 2 0 0 Z " fill="#876597" transform="translate(385,650)"/>
<path d="M0 0 C2.2432954 2.88423694 4.36318083 5.72636167 6 9 C5.578125 11.15625 5.578125 11.15625 5 13 C4.15615325 11.58957044 3.32530504 10.17135868 2.5 8.75 C2.0359375 7.96109375 1.571875 7.1721875 1.09375 6.359375 C0 4 0 4 0 0 Z " fill="#9168A5" transform="translate(379,637)"/>
<path d="M0 0 C0.33 1.32 0.66 2.64 1 4 C0.34 4 -0.32 4 -1 4 C-1.12375 4.556875 -1.2475 5.11375 -1.375 5.6875 C-2.05976855 8.22114364 -2.99133763 10.57921032 -4 13 C-4.66 13 -5.32 13 -6 13 C-4.75696561 7.82069003 -3.14512215 4.29833361 0 0 Z " fill="#7B5D81" transform="translate(314,557)"/>
<path d="M0 0 C0.75 1.5625 0.75 1.5625 1 4 C-0.13084437 6.50286409 -1.52139516 8.67007722 -3 11 C-3.66 11 -4.32 11 -5 11 C-3.77472971 6.94718288 -2.30119506 3.55639236 0 0 Z " fill="#866295" transform="translate(374,453)"/>
<path d="M0 0 C0.99 0 1.98 0 3 0 C3.33 3.3 3.66 6.6 4 10 C1.07490914 6.09987886 0.52464905 4.61691161 0 0 Z " fill="#8D64A4" transform="translate(338,247)"/>
<path d="M0 0 C0 3.60297389 -1.1785171 4.96419516 -3 8 C-3 8.99 -3 9.98 -3 11 C-3.99 10.67 -4.98 10.34 -6 10 C-5.49477778 5.62140745 -2.82172778 3.18348776 0 0 Z " fill="#765A8C" transform="translate(704,203)"/>
<path d="M0 0 C0 4.24645065 -1.81750806 6.38524772 -4 10 C-4.6875 8.3125 -4.6875 8.3125 -5 6 C-2.73846154 1.36923077 -2.73846154 1.36923077 0 0 Z " fill="#8E64A8" transform="translate(405,402)"/>
<path d="M0 0 C7.75 -0.125 7.75 -0.125 10 1 C10 1.66 10 2.32 10 3 C6.28111761 2.49287967 3.26545761 1.88391785 0 0 Z " fill="#9C62C1" transform="translate(922,498)"/>
<path d="M0 0 C0.99 0 1.98 0 3 0 C3 0.99 3 1.98 3 3 C2.01 3 1.02 3 0 3 C0 2.01 0 1.02 0 0 Z " fill="#494949" transform="translate(1089,1042)"/>
<path d="M0 0 C0.99 0 1.98 0 3 0 C3 0.99 3 1.98 3 3 C2.01 3 1.02 3 0 3 C0 2.01 0 1.02 0 0 Z " fill="#4A4A4A" transform="translate(1029,1042)"/>
<path d="M0 0 C0.99 0 1.98 0 3 0 C3 0.99 3 1.98 3 3 C2.01 3 1.02 3 0 3 C0 2.01 0 1.02 0 0 Z " fill="#565656" transform="translate(969,1042)"/>
<path d="M0 0 C0.99 0 1.98 0 3 0 C3 0.99 3 1.98 3 3 C2.01 3 1.02 3 0 3 C0 2.01 0 1.02 0 0 Z " fill="#6A6A6A" transform="translate(909,1042)"/>
<path d="M0 0 C0.99 0 1.98 0 3 0 C3 0.99 3 1.98 3 3 C2.01 3 1.02 3 0 3 C0 2.01 0 1.02 0 0 Z " fill="#4E4E4E" transform="translate(849,1042)"/>
<path d="M0 0 C0.99 0 1.98 0 3 0 C3 0.99 3 1.98 3 3 C2.01 3 1.02 3 0 3 C0 2.01 0 1.02 0 0 Z " fill="#4E4E4E" transform="translate(789,1042)"/>
<path d="M0 0 C0.99 0 1.98 0 3 0 C3 0.99 3 1.98 3 3 C2.01 3 1.02 3 0 3 C0 2.01 0 1.02 0 0 Z " fill="#494949" transform="translate(310,1042)"/>
<path d="M0 0 C0.99 0 1.98 0 3 0 C3 0.99 3 1.98 3 3 C2.01 3 1.02 3 0 3 C0 2.01 0 1.02 0 0 Z " fill="#4A4A4A" transform="translate(250,1042)"/>
<path d="M0 0 C0.99 0 1.98 0 3 0 C3 0.99 3 1.98 3 3 C2.01 3 1.02 3 0 3 C0 2.01 0 1.02 0 0 Z " fill="#565656" transform="translate(190,1042)"/>
<path d="M0 0 C0.99 0 1.98 0 3 0 C3 0.99 3 1.98 3 3 C2.01 3 1.02 3 0 3 C0 2.01 0 1.02 0 0 Z " fill="#565656" transform="translate(130,1042)"/>
<path d="M0 0 C0.99 0 1.98 0 3 0 C3 0.99 3 1.98 3 3 C2.01 3 1.02 3 0 3 C0 2.01 0 1.02 0 0 Z " fill="#4E4E4E" transform="translate(70,1042)"/>
<path d="M0 0 C0.99 0 1.98 0 3 0 C3 0.99 3 1.98 3 3 C2.01 3 1.02 3 0 3 C0 2.01 0 1.02 0 0 Z " fill="#4E4E4E" transform="translate(10,1042)"/>
<path d="M0 0 C0.99 0 1.98 0 3 0 C3 0.99 3 1.98 3 3 C2.01 3 1.02 3 0 3 C0 2.01 0 1.02 0 0 Z " fill="#545454" transform="translate(849,683)"/>
<path d="M0 0 C0.99 0 1.98 0 3 0 C3 0.99 3 1.98 3 3 C2.01 3 1.02 3 0 3 C0 2.01 0 1.02 0 0 Z " fill="#545454" transform="translate(10,683)"/>
<path d="M0 0 C0.99 0 1.98 0 3 0 C3 0.99 3 1.98 3 3 C2.01 3 1.02 3 0 3 C0 2.01 0 1.02 0 0 Z " fill="#555555" transform="translate(909,683)"/>
<path d="M0 0 C0.99 0 1.98 0 3 0 C3 0.99 3 1.98 3 3 C2.01 3 1.02 3 0 3 C0 2.01 0 1.02 0 0 Z " fill="#545454" transform="translate(789,683)"/>
<path d="M0 0 C0.99 0 1.98 0 3 0 C3 0.99 3 1.98 3 3 C2.01 3 1.02 3 0 3 C0 2.01 0 1.02 0 0 Z " fill="#545454" transform="translate(130,683)"/>
<path d="M0 0 C0.99 0 1.98 0 3 0 C3 0.99 3 1.98 3 3 C2.01 3 1.02 3 0 3 C0 2.01 0 1.02 0 0 Z " fill="#555555" transform="translate(70,683)"/>
<path d="M0 0 C0.99 0 1.98 0 3 0 C3 0.99 3 1.98 3 3 C2.01 3 1.02 3 0 3 C0 2.01 0 1.02 0 0 Z " fill="#4E4E4E" transform="translate(909,623)"/>
<path d="M0 0 C0.99 0 1.98 0 3 0 C3 0.99 3 1.98 3 3 C2.01 3 1.02 3 0 3 C0 2.01 0 1.02 0 0 Z " fill="#565656" transform="translate(190,623)"/>
<path d="M0 0 C0.99 0 1.98 0 3 0 C3 0.99 3 1.98 3 3 C2.01 3 1.02 3 0 3 C0 2.01 0 1.02 0 0 Z " fill="#565656" transform="translate(130,623)"/>
<path d="M0 0 C0.99 0 1.98 0 3 0 C3 0.99 3 1.98 3 3 C2.01 3 1.02 3 0 3 C0 2.01 0 1.02 0 0 Z " fill="#4E4E4E" transform="translate(70,623)"/>
<path d="M0 0 C0.99 0 1.98 0 3 0 C3 0.99 3 1.98 3 3 C2.01 3 1.02 3 0 3 C0 2.01 0 1.02 0 0 Z " fill="#575757" transform="translate(849,623)"/>
<path d="M0 0 C0.99 0 1.98 0 3 0 C3 0.99 3 1.98 3 3 C2.01 3 1.02 3 0 3 C0 2.01 0 1.02 0 0 Z " fill="#565656" transform="translate(789,623)"/>
<path d="M0 0 C0.99 0 1.98 0 3 0 C3 0.99 3 1.98 3 3 C2.01 3 1.02 3 0 3 C0 2.01 0 1.02 0 0 Z " fill="#575757" transform="translate(10,623)"/>
<path d="M0 0 C0.99 0 1.98 0 3 0 C3 0.99 3 1.98 3 3 C2.01 3 1.02 3 0 3 C0 2.01 0 1.02 0 0 Z " fill="#4F4F4F" transform="translate(1089,563)"/>
<path d="M0 0 C0.99 0 1.98 0 3 0 C3 0.99 3 1.98 3 3 C2.01 3 1.02 3 0 3 C0 2.01 0 1.02 0 0 Z " fill="#4F4F4F" transform="translate(909,563)"/>
<path d="M0 0 C0.99 0 1.98 0 3 0 C3 0.99 3 1.98 3 3 C2.01 3 1.02 3 0 3 C0 2.01 0 1.02 0 0 Z " fill="#4F4F4F" transform="translate(849,563)"/>
<path d="M0 0 C0.99 0 1.98 0 3 0 C3 0.99 3 1.98 3 3 C2.01 3 1.02 3 0 3 C0 2.01 0 1.02 0 0 Z " fill="#4F4F4F" transform="translate(250,563)"/>
<path d="M0 0 C0.99 0 1.98 0 3 0 C3 0.99 3 1.98 3 3 C2.01 3 1.02 3 0 3 C0 2.01 0 1.02 0 0 Z " fill="#4F4F4F" transform="translate(70,563)"/>
<path d="M0 0 C0.99 0 1.98 0 3 0 C3 0.99 3 1.98 3 3 C2.01 3 1.02 3 0 3 C0 2.01 0 1.02 0 0 Z " fill="#565656" transform="translate(10,563)"/>
<path d="M0 0 C0.99 0 1.98 0 3 0 C3 0.99 3 1.98 3 3 C2.01 3 1.02 3 0 3 C0 2.01 0 1.02 0 0 Z " fill="#555555" transform="translate(789,563)"/>
<path d="M0 0 C0.99 0 1.98 0 3 0 C3 0.99 3 1.98 3 3 C2.01 3 1.02 3 0 3 C0 2.01 0 1.02 0 0 Z " fill="#565656" transform="translate(1089,503)"/>
<path d="M0 0 C0.99 0 1.98 0 3 0 C3 0.99 3 1.98 3 3 C2.01 3 1.02 3 0 3 C0 2.01 0 1.02 0 0 Z " fill="#4F4F4F" transform="translate(1029,503)"/>
<path d="M0 0 C0.99 0 1.98 0 3 0 C3 0.99 3 1.98 3 3 C2.01 3 1.02 3 0 3 C0 2.01 0 1.02 0 0 Z " fill="#484848" transform="translate(969,503)"/>
<path d="M0 0 C0.99 0 1.98 0 3 0 C3 0.99 3 1.98 3 3 C2.01 3 1.02 3 0 3 C0 2.01 0 1.02 0 0 Z " fill="#484848" transform="translate(909,503)"/>
<path d="M0 0 C0.99 0 1.98 0 3 0 C3 0.99 3 1.98 3 3 C2.01 3 1.02 3 0 3 C0 2.01 0 1.02 0 0 Z " fill="#565656" transform="translate(849,503)"/>
<path d="M0 0 C0.99 0 1.98 0 3 0 C3 0.99 3 1.98 3 3 C2.01 3 1.02 3 0 3 C0 2.01 0 1.02 0 0 Z " fill="#565656" transform="translate(310,503)"/>
<path d="M0 0 C0.99 0 1.98 0 3 0 C3 0.99 3 1.98 3 3 C2.01 3 1.02 3 0 3 C0 2.01 0 1.02 0 0 Z " fill="#4F4F4F" transform="translate(250,503)"/>
<path d="M0 0 C0.99 0 1.98 0 3 0 C3 0.99 3 1.98 3 3 C2.01 3 1.02 3 0 3 C0 2.01 0 1.02 0 0 Z " fill="#565656" transform="translate(10,503)"/>
<path d="M0 0 C0.99 0 1.98 0 3 0 C3 0.99 3 1.98 3 3 C2.01 3 1.02 3 0 3 C0 2.01 0 1.02 0 0 Z " fill="#4F4F4F" transform="translate(1089,443)"/>
<path d="M0 0 C0.99 0 1.98 0 3 0 C3 0.99 3 1.98 3 3 C2.01 3 1.02 3 0 3 C0 2.01 0 1.02 0 0 Z " fill="#4F4F4F" transform="translate(1029,443)"/>
<path d="M0 0 C0.99 0 1.98 0 3 0 C3 0.99 3 1.98 3 3 C2.01 3 1.02 3 0 3 C0 2.01 0 1.02 0 0 Z " fill="#565656" transform="translate(969,443)"/>
<path d="M0 0 C0.99 0 1.98 0 3 0 C3 0.99 3 1.98 3 3 C2.01 3 1.02 3 0 3 C0 2.01 0 1.02 0 0 Z " fill="#4E4E4E" transform="translate(909,443)"/>
<path d="M0 0 C0.99 0 1.98 0 3 0 C3 0.99 3 1.98 3 3 C2.01 3 1.02 3 0 3 C0 2.01 0 1.02 0 0 Z " fill="#4E4E4E" transform="translate(789,443)"/>
<path d="M0 0 C0.99 0 1.98 0 3 0 C3 0.99 3 1.98 3 3 C2.01 3 1.02 3 0 3 C0 2.01 0 1.02 0 0 Z " fill="#494949" transform="translate(310,443)"/>
<path d="M0 0 C0.99 0 1.98 0 3 0 C3 0.99 3 1.98 3 3 C2.01 3 1.02 3 0 3 C0 2.01 0 1.02 0 0 Z " fill="#4F4F4F" transform="translate(250,443)"/>
<path d="M0 0 C0.99 0 1.98 0 3 0 C3 0.99 3 1.98 3 3 C2.01 3 1.02 3 0 3 C0 2.01 0 1.02 0 0 Z " fill="#494949" transform="translate(1089,383)"/>
<path d="M0 0 C0.99 0 1.98 0 3 0 C3 0.99 3 1.98 3 3 C2.01 3 1.02 3 0 3 C0 2.01 0 1.02 0 0 Z " fill="#494949" transform="translate(1029,383)"/>
<path d="M0 0 C0.99 0 1.98 0 3 0 C3 0.99 3 1.98 3 3 C2.01 3 1.02 3 0 3 C0 2.01 0 1.02 0 0 Z " fill="#565656" transform="translate(969,383)"/>
<path d="M0 0 C0.99 0 1.98 0 3 0 C3 0.99 3 1.98 3 3 C2.01 3 1.02 3 0 3 C0 2.01 0 1.02 0 0 Z " fill="#6A6A6A" transform="translate(909,383)"/>
<path d="M0 0 C0.99 0 1.98 0 3 0 C3 0.99 3 1.98 3 3 C2.01 3 1.02 3 0 3 C0 2.01 0 1.02 0 0 Z " fill="#4D4D4D" transform="translate(789,383)"/>
<path d="M0 0 C0.99 0 1.98 0 3 0 C3 0.99 3 1.98 3 3 C2.01 3 1.02 3 0 3 C0 2.01 0 1.02 0 0 Z " fill="#4D4D4D" transform="translate(10,383)"/>
<path d="M0 0 C0.99 0 1.98 0 3 0 C3 0.99 3 1.98 3 3 C2.01 3 1.02 3 0 3 C0 2.01 0 1.02 0 0 Z " fill="#565656" transform="translate(969,24)"/>
<path d="M0 0 C0.99 0 1.98 0 3 0 C3 0.99 3 1.98 3 3 C2.01 3 1.02 3 0 3 C0 2.01 0 1.02 0 0 Z " fill="#575757" transform="translate(909,24)"/>
<path d="M0 0 C0.99 0 1.98 0 3 0 C3 0.99 3 1.98 3 3 C2.01 3 1.02 3 0 3 C0 2.01 0 1.02 0 0 Z " fill="#565656" transform="translate(849,24)"/>
<path d="M0 0 C0.99 0 1.98 0 3 0 C3 0.99 3 1.98 3 3 C2.01 3 1.02 3 0 3 C0 2.01 0 1.02 0 0 Z " fill="#565656" transform="translate(130,24)"/>
<path d="M0 0 C0.99 0 1.98 0 3 0 C3 0.99 3 1.98 3 3 C2.01 3 1.02 3 0 3 C0 2.01 0 1.02 0 0 Z " fill="#575757" transform="translate(70,24)"/>
<path d="M0 0 C0.99 0 1.98 0 3 0 C3 0.99 3 1.98 3 3 C2.01 3 1.02 3 0 3 C0 2.01 0 1.02 0 0 Z " fill="#565656" transform="translate(10,24)"/>
<path d="M0 0 C0.99 0 1.98 0 3 0 C3 0.99 3 1.98 3 3 C2.01 3 1.02 3 0 3 C0 2.01 0 1.02 0 0 Z " fill="#565656" transform="translate(789,24)"/>
<path d="M0 0 C0.66 0 1.32 0 2 0 C2 0.99 2 1.98 2 3 C1.34 3 0.68 3 0 3 C0 2.01 0 1.02 0 0 Z " fill="#505050" transform="translate(610,1042)"/>
<path d="M0 0 C0.66 0 1.32 0 2 0 C2 0.99 2 1.98 2 3 C1.34 3 0.68 3 0 3 C0 2.01 0 1.02 0 0 Z " fill="#4E4E4E" transform="translate(550,1042)"/>
<path d="M0 0 C0.66 0 1.32 0 2 0 C2 0.99 2 1.98 2 3 C1.34 3 0.68 3 0 3 C0 2.01 0 1.02 0 0 Z " fill="#4C4C4C" transform="translate(490,1042)"/>
<path d="M0 0 C0.66 0 1.32 0 2 0 C2 0.99 2 1.98 2 3 C1.34 3 0.68 3 0 3 C0 2.01 0 1.02 0 0 Z " fill="#4D4D4D" transform="translate(430,1042)"/>
<path d="M0 0 C0.66 0 1.32 0 2 0 C2 0.99 2 1.98 2 3 C1.34 3 0.68 3 0 3 C0 2.01 0 1.02 0 0 Z " fill="#4D4D4D" transform="translate(370,1042)"/>
<path d="M0 0 C0.99 0 1.98 0 3 0 C3 0.66 3 1.32 3 2 C2.01 2 1.02 2 0 2 C0 1.34 0 0.68 0 0 Z " fill="#515151" transform="translate(1089,983)"/>
<path d="M0 0 C0.99 0 1.98 0 3 0 C3 0.66 3 1.32 3 2 C2.01 2 1.02 2 0 2 C0 1.34 0 0.68 0 0 Z " fill="#525252" transform="translate(1029,983)"/>
<path d="M0 0 C0.99 0 1.98 0 3 0 C3 0.66 3 1.32 3 2 C2.01 2 1.02 2 0 2 C0 1.34 0 0.68 0 0 Z " fill="#4F4F4F" transform="translate(969,983)"/>
<path d="M0 0 C0.99 0 1.98 0 3 0 C3 0.66 3 1.32 3 2 C2.01 2 1.02 2 0 2 C0 1.34 0 0.68 0 0 Z " fill="#515151" transform="translate(909,983)"/>
<path d="M0 0 C0.99 0 1.98 0 3 0 C3 0.66 3 1.32 3 2 C2.01 2 1.02 2 0 2 C0 1.34 0 0.68 0 0 Z " fill="#515151" transform="translate(849,983)"/>
<path d="M0 0 C0.99 0 1.98 0 3 0 C3 0.66 3 1.32 3 2 C2.01 2 1.02 2 0 2 C0 1.34 0 0.68 0 0 Z " fill="#515151" transform="translate(310,983)"/>
<path d="M0 0 C0.99 0 1.98 0 3 0 C3 0.66 3 1.32 3 2 C2.01 2 1.02 2 0 2 C0 1.34 0 0.68 0 0 Z " fill="#515151" transform="translate(250,983)"/>
<path d="M0 0 C0.99 0 1.98 0 3 0 C3 0.66 3 1.32 3 2 C2.01 2 1.02 2 0 2 C0 1.34 0 0.68 0 0 Z " fill="#525252" transform="translate(190,983)"/>
<path d="M0 0 C0.99 0 1.98 0 3 0 C3 0.66 3 1.32 3 2 C2.01 2 1.02 2 0 2 C0 1.34 0 0.68 0 0 Z " fill="#525252" transform="translate(130,983)"/>
<path d="M0 0 C0.99 0 1.98 0 3 0 C3 0.66 3 1.32 3 2 C2.01 2 1.02 2 0 2 C0 1.34 0 0.68 0 0 Z " fill="#515151" transform="translate(70,983)"/>
<path d="M0 0 C0.99 0 1.98 0 3 0 C3 0.66 3 1.32 3 2 C2.01 2 1.02 2 0 2 C0 1.34 0 0.68 0 0 Z " fill="#515151" transform="translate(10,983)"/>
<path d="M0 0 C0.99 0 1.98 0 3 0 C3 0.66 3 1.32 3 2 C2.01 2 1.02 2 0 2 C0 1.34 0 0.68 0 0 Z " fill="#4E4E4E" transform="translate(1029,923)"/>
<path d="M0 0 C0.99 0 1.98 0 3 0 C3 0.66 3 1.32 3 2 C2.01 2 1.02 2 0 2 C0 1.34 0 0.68 0 0 Z " fill="#4F4F4F" transform="translate(969,923)"/>
<path d="M0 0 C0.99 0 1.98 0 3 0 C3 0.66 3 1.32 3 2 C2.01 2 1.02 2 0 2 C0 1.34 0 0.68 0 0 Z " fill="#4E4E4E" transform="translate(909,923)"/>
<path d="M0 0 C0.99 0 1.98 0 3 0 C3 0.66 3 1.32 3 2 C2.01 2 1.02 2 0 2 C0 1.34 0 0.68 0 0 Z " fill="#4F4F4F" transform="translate(130,923)"/>
<path d="M0 0 C0.99 0 1.98 0 3 0 C3 0.66 3 1.32 3 2 C2.01 2 1.02 2 0 2 C0 1.34 0 0.68 0 0 Z " fill="#4E4E4E" transform="translate(70,923)"/>
<path d="M0 0 C0.99 0 1.98 0 3 0 C3 0.66 3 1.32 3 2 C2.01 2 1.02 2 0 2 C0 1.34 0 0.68 0 0 Z " fill="#515151" transform="translate(1089,923)"/>
<path d="M0 0 C0.99 0 1.98 0 3 0 C3 0.66 3 1.32 3 2 C2.01 2 1.02 2 0 2 C0 1.34 0 0.68 0 0 Z " fill="#515151" transform="translate(849,923)"/>
<path d="M0 0 C0.99 0 1.98 0 3 0 C3 0.66 3 1.32 3 2 C2.01 2 1.02 2 0 2 C0 1.34 0 0.68 0 0 Z " fill="#515151" transform="translate(10,923)"/>
<path d="M0 0 C0.99 0 1.98 0 3 0 C3 0.66 3 1.32 3 2 C2.01 2 1.02 2 0 2 C0 1.34 0 0.68 0 0 Z " fill="#4E4E4E" transform="translate(1029,863)"/>
<path d="M0 0 C0.99 0 1.98 0 3 0 C3 0.66 3 1.32 3 2 C2.01 2 1.02 2 0 2 C0 1.34 0 0.68 0 0 Z " fill="#4E4E4E" transform="translate(969,863)"/>
<path d="M0 0 C0.99 0 1.98 0 3 0 C3 0.66 3 1.32 3 2 C2.01 2 1.02 2 0 2 C0 1.34 0 0.68 0 0 Z " fill="#4E4E4E" transform="translate(909,863)"/>
<path d="M0 0 C0.99 0 1.98 0 3 0 C3 0.66 3 1.32 3 2 C2.01 2 1.02 2 0 2 C0 1.34 0 0.68 0 0 Z " fill="#4E4E4E" transform="translate(130,863)"/>
<path d="M0 0 C0.99 0 1.98 0 3 0 C3 0.66 3 1.32 3 2 C2.01 2 1.02 2 0 2 C0 1.34 0 0.68 0 0 Z " fill="#4E4E4E" transform="translate(1089,863)"/>
<path d="M0 0 C0.99 0 1.98 0 3 0 C3 0.66 3 1.32 3 2 C2.01 2 1.02 2 0 2 C0 1.34 0 0.68 0 0 Z " fill="#4E4E4E" transform="translate(849,863)"/>
<path d="M0 0 C0.99 0 1.98 0 3 0 C3 0.66 3 1.32 3 2 C2.01 2 1.02 2 0 2 C0 1.34 0 0.68 0 0 Z " fill="#4D4D4D" transform="translate(70,863)"/>
<path d="M0 0 C0.99 0 1.98 0 3 0 C3 0.66 3 1.32 3 2 C2.01 2 1.02 2 0 2 C0 1.34 0 0.68 0 0 Z " fill="#4E4E4E" transform="translate(10,863)"/>
<path d="M0 0 C0.99 0 1.98 0 3 0 C3 0.66 3 1.32 3 2 C2.01 2 1.02 2 0 2 C0 1.34 0 0.68 0 0 Z " fill="#4E4E4E" transform="translate(969,803)"/>
<path d="M0 0 C0.99 0 1.98 0 3 0 C3 0.66 3 1.32 3 2 C2.01 2 1.02 2 0 2 C0 1.34 0 0.68 0 0 Z " fill="#4E4E4E" transform="translate(909,803)"/>
<path d="M0 0 C0.99 0 1.98 0 3 0 C3 0.66 3 1.32 3 2 C2.01 2 1.02 2 0 2 C0 1.34 0 0.68 0 0 Z " fill="#4E4E4E" transform="translate(130,803)"/>
<path d="M0 0 C0.99 0 1.98 0 3 0 C3 0.66 3 1.32 3 2 C2.01 2 1.02 2 0 2 C0 1.34 0 0.68 0 0 Z " fill="#4E4E4E" transform="translate(70,803)"/>
<path d="M0 0 C0.99 0 1.98 0 3 0 C3 0.66 3 1.32 3 2 C2.01 2 1.02 2 0 2 C0 1.34 0 0.68 0 0 Z " fill="#4E4E4E" transform="translate(1089,803)"/>
<path d="M0 0 C0.99 0 1.98 0 3 0 C3 0.66 3 1.32 3 2 C2.01 2 1.02 2 0 2 C0 1.34 0 0.68 0 0 Z " fill="#4E4E4E" transform="translate(1029,803)"/>
<path d="M0 0 C0.99 0 1.98 0 3 0 C3 0.66 3 1.32 3 2 C2.01 2 1.02 2 0 2 C0 1.34 0 0.68 0 0 Z " fill="#4E4E4E" transform="translate(849,803)"/>
<path d="M0 0 C0.99 0 1.98 0 3 0 C3 0.66 3 1.32 3 2 C2.01 2 1.02 2 0 2 C0 1.34 0 0.68 0 0 Z " fill="#505050" transform="translate(789,803)"/>
<path d="M0 0 C0.99 0 1.98 0 3 0 C3 0.66 3 1.32 3 2 C2.01 2 1.02 2 0 2 C0 1.34 0 0.68 0 0 Z " fill="#505050" transform="translate(310,803)"/>
<path d="M0 0 C0.99 0 1.98 0 3 0 C3 0.66 3 1.32 3 2 C2.01 2 1.02 2 0 2 C0 1.34 0 0.68 0 0 Z " fill="#4E4E4E" transform="translate(10,803)"/>
<path d="M0 0 C0.99 0 1.98 0 3 0 C3 0.66 3 1.32 3 2 C2.01 2 1.02 2 0 2 C0 1.34 0 0.68 0 0 Z " fill="#4F4F4F" transform="translate(190,743)"/>
<path d="M0 0 C0.99 0 1.98 0 3 0 C3 0.66 3 1.32 3 2 C2.01 2 1.02 2 0 2 C0 1.34 0 0.68 0 0 Z " fill="#4F4F4F" transform="translate(130,743)"/>
<path d="M0 0 C0.99 0 1.98 0 3 0 C3 0.66 3 1.32 3 2 C2.01 2 1.02 2 0 2 C0 1.34 0 0.68 0 0 Z " fill="#515151" transform="translate(1089,743)"/>
<path d="M0 0 C0.99 0 1.98 0 3 0 C3 0.66 3 1.32 3 2 C2.01 2 1.02 2 0 2 C0 1.34 0 0.68 0 0 Z " fill="#4E4E4E" transform="translate(1029,743)"/>
<path d="M0 0 C0.99 0 1.98 0 3 0 C3 0.66 3 1.32 3 2 C2.01 2 1.02 2 0 2 C0 1.34 0 0.68 0 0 Z " fill="#515151" transform="translate(310,743)"/>
<path d="M0 0 C0.99 0 1.98 0 3 0 C3 0.66 3 1.32 3 2 C2.01 2 1.02 2 0 2 C0 1.34 0 0.68 0 0 Z " fill="#515151" transform="translate(70,743)"/>
<path d="M0 0 C0.99 0 1.98 0 3 0 C3 0.66 3 1.32 3 2 C2.01 2 1.02 2 0 2 C0 1.34 0 0.68 0 0 Z " fill="#515151" transform="translate(10,743)"/>
<path d="M0 0 C0.66 0 1.32 0 2 0 C2 0.99 2 1.98 2 3 C1.34 3 0.68 3 0 3 C0 2.01 0 1.02 0 0 Z " fill="#515151" transform="translate(730,683)"/>
<path d="M0 0 C0.66 0 1.32 0 2 0 C2 0.99 2 1.98 2 3 C1.34 3 0.68 3 0 3 C0 2.01 0 1.02 0 0 Z " fill="#515151" transform="translate(370,683)"/>
<path d="M0 0 C0.66 0 1.32 0 2 0 C2 0.99 2 1.98 2 3 C1.34 3 0.68 3 0 3 C0 2.01 0 1.02 0 0 Z " fill="#4D4D4D" transform="translate(370,443)"/>
<path d="M0 0 C0.66 0 1.32 0 2 0 C2 0.99 2 1.98 2 3 C1.34 3 0.68 3 0 3 C0 2.01 0 1.02 0 0 Z " fill="#515151" transform="translate(730,383)"/>
<path d="M0 0 C0.99 0 1.98 0 3 0 C3 0.66 3 1.32 3 2 C2.01 2 1.02 2 0 2 C0 1.34 0 0.68 0 0 Z " fill="#515151" transform="translate(1089,324)"/>
<path d="M0 0 C0.99 0 1.98 0 3 0 C3 0.66 3 1.32 3 2 C2.01 2 1.02 2 0 2 C0 1.34 0 0.68 0 0 Z " fill="#525252" transform="translate(1029,324)"/>
<path d="M0 0 C0.99 0 1.98 0 3 0 C3 0.66 3 1.32 3 2 C2.01 2 1.02 2 0 2 C0 1.34 0 0.68 0 0 Z " fill="#4F4F4F" transform="translate(969,324)"/>
<path d="M0 0 C0.99 0 1.98 0 3 0 C3 0.66 3 1.32 3 2 C2.01 2 1.02 2 0 2 C0 1.34 0 0.68 0 0 Z " fill="#515151" transform="translate(849,324)"/>
<path d="M0 0 C0.99 0 1.98 0 3 0 C3 0.66 3 1.32 3 2 C2.01 2 1.02 2 0 2 C0 1.34 0 0.68 0 0 Z " fill="#515151" transform="translate(789,324)"/>
<path d="M0 0 C0.99 0 1.98 0 3 0 C3 0.66 3 1.32 3 2 C2.01 2 1.02 2 0 2 C0 1.34 0 0.68 0 0 Z " fill="#515151" transform="translate(310,324)"/>
<path d="M0 0 C0.99 0 1.98 0 3 0 C3 0.66 3 1.32 3 2 C2.01 2 1.02 2 0 2 C0 1.34 0 0.68 0 0 Z " fill="#515151" transform="translate(250,324)"/>
<path d="M0 0 C0.99 0 1.98 0 3 0 C3 0.66 3 1.32 3 2 C2.01 2 1.02 2 0 2 C0 1.34 0 0.68 0 0 Z " fill="#525252" transform="translate(190,324)"/>
<path d="M0 0 C0.99 0 1.98 0 3 0 C3 0.66 3 1.32 3 2 C2.01 2 1.02 2 0 2 C0 1.34 0 0.68 0 0 Z " fill="#4F4F4F" transform="translate(130,324)"/>
<path d="M0 0 C0.99 0 1.98 0 3 0 C3 0.66 3 1.32 3 2 C2.01 2 1.02 2 0 2 C0 1.34 0 0.68 0 0 Z " fill="#515151" transform="translate(70,324)"/>
<path d="M0 0 C0.99 0 1.98 0 3 0 C3 0.66 3 1.32 3 2 C2.01 2 1.02 2 0 2 C0 1.34 0 0.68 0 0 Z " fill="#515151" transform="translate(10,324)"/>
<path d="M0 0 C0.99 0 1.98 0 3 0 C3 0.66 3 1.32 3 2 C2.01 2 1.02 2 0 2 C0 1.34 0 0.68 0 0 Z " fill="#4E4E4E" transform="translate(1029,264)"/>
<path d="M0 0 C0.99 0 1.98 0 3 0 C3 0.66 3 1.32 3 2 C2.01 2 1.02 2 0 2 C0 1.34 0 0.68 0 0 Z " fill="#4F4F4F" transform="translate(969,264)"/>
<path d="M0 0 C0.99 0 1.98 0 3 0 C3 0.66 3 1.32 3 2 C2.01 2 1.02 2 0 2 C0 1.34 0 0.68 0 0 Z " fill="#4E4E4E" transform="translate(250,264)"/>
<path d="M0 0 C0.99 0 1.98 0 3 0 C3 0.66 3 1.32 3 2 C2.01 2 1.02 2 0 2 C0 1.34 0 0.68 0 0 Z " fill="#4F4F4F" transform="translate(190,264)"/>
<path d="M0 0 C0.99 0 1.98 0 3 0 C3 0.66 3 1.32 3 2 C2.01 2 1.02 2 0 2 C0 1.34 0 0.68 0 0 Z " fill="#4F4F4F" transform="translate(130,264)"/>
<path d="M0 0 C0.99 0 1.98 0 3 0 C3 0.66 3 1.32 3 2 C2.01 2 1.02 2 0 2 C0 1.34 0 0.68 0 0 Z " fill="#4E4E4E" transform="translate(70,264)"/>
<path d="M0 0 C0.99 0 1.98 0 3 0 C3 0.66 3 1.32 3 2 C2.01 2 1.02 2 0 2 C0 1.34 0 0.68 0 0 Z " fill="#515151" transform="translate(1089,264)"/>
<path d="M0 0 C0.99 0 1.98 0 3 0 C3 0.66 3 1.32 3 2 C2.01 2 1.02 2 0 2 C0 1.34 0 0.68 0 0 Z " fill="#505050" transform="translate(310,264)"/>
<path d="M0 0 C0.99 0 1.98 0 3 0 C3 0.66 3 1.32 3 2 C2.01 2 1.02 2 0 2 C0 1.34 0 0.68 0 0 Z " fill="#515151" transform="translate(10,264)"/>
<path d="M0 0 C0.99 0 1.98 0 3 0 C3 0.66 3 1.32 3 2 C2.01 2 1.02 2 0 2 C0 1.34 0 0.68 0 0 Z " fill="#4E4E4E" transform="translate(1029,204)"/>
<path d="M0 0 C0.99 0 1.98 0 3 0 C3 0.66 3 1.32 3 2 C2.01 2 1.02 2 0 2 C0 1.34 0 0.68 0 0 Z " fill="#4E4E4E" transform="translate(969,204)"/>
<path d="M0 0 C0.99 0 1.98 0 3 0 C3 0.66 3 1.32 3 2 C2.01 2 1.02 2 0 2 C0 1.34 0 0.68 0 0 Z " fill="#4E4E4E" transform="translate(190,204)"/>
<path d="M0 0 C0.99 0 1.98 0 3 0 C3 0.66 3 1.32 3 2 C2.01 2 1.02 2 0 2 C0 1.34 0 0.68 0 0 Z " fill="#4E4E4E" transform="translate(130,204)"/>
<path d="M0 0 C0.99 0 1.98 0 3 0 C3 0.66 3 1.32 3 2 C2.01 2 1.02 2 0 2 C0 1.34 0 0.68 0 0 Z " fill="#4E4E4E" transform="translate(1089,204)"/>
<path d="M0 0 C0.99 0 1.98 0 3 0 C3 0.66 3 1.32 3 2 C2.01 2 1.02 2 0 2 C0 1.34 0 0.68 0 0 Z " fill="#4E4E4E" transform="translate(310,204)"/>
<path d="M0 0 C0.99 0 1.98 0 3 0 C3 0.66 3 1.32 3 2 C2.01 2 1.02 2 0 2 C0 1.34 0 0.68 0 0 Z " fill="#4E4E4E" transform="translate(250,204)"/>
<path d="M0 0 C0.99 0 1.98 0 3 0 C3 0.66 3 1.32 3 2 C2.01 2 1.02 2 0 2 C0 1.34 0 0.68 0 0 Z " fill="#4D4D4D" transform="translate(70,204)"/>
<path d="M0 0 C0.99 0 1.98 0 3 0 C3 0.66 3 1.32 3 2 C2.01 2 1.02 2 0 2 C0 1.34 0 0.68 0 0 Z " fill="#4E4E4E" transform="translate(10,204)"/>
<path d="M0 0 C0.99 0 1.98 0 3 0 C3 0.66 3 1.32 3 2 C2.01 2 1.02 2 0 2 C0 1.34 0 0.68 0 0 Z " fill="#4E4E4E" transform="translate(969,144)"/>
<path d="M0 0 C0.99 0 1.98 0 3 0 C3 0.66 3 1.32 3 2 C2.01 2 1.02 2 0 2 C0 1.34 0 0.68 0 0 Z " fill="#4F4F4F" transform="translate(190,144)"/>
<path d="M0 0 C0.99 0 1.98 0 3 0 C3 0.66 3 1.32 3 2 C2.01 2 1.02 2 0 2 C0 1.34 0 0.68 0 0 Z " fill="#4F4F4F" transform="translate(130,144)"/>
<path d="M0 0 C0.99 0 1.98 0 3 0 C3 0.66 3 1.32 3 2 C2.01 2 1.02 2 0 2 C0 1.34 0 0.68 0 0 Z " fill="#4E4E4E" transform="translate(70,144)"/>
<path d="M0 0 C0.99 0 1.98 0 3 0 C3 0.66 3 1.32 3 2 C2.01 2 1.02 2 0 2 C0 1.34 0 0.68 0 0 Z " fill="#4E4E4E" transform="translate(1089,144)"/>
<path d="M0 0 C0.99 0 1.98 0 3 0 C3 0.66 3 1.32 3 2 C2.01 2 1.02 2 0 2 C0 1.34 0 0.68 0 0 Z " fill="#4E4E4E" transform="translate(1029,144)"/>
<path d="M0 0 C0.99 0 1.98 0 3 0 C3 0.66 3 1.32 3 2 C2.01 2 1.02 2 0 2 C0 1.34 0 0.68 0 0 Z " fill="#505050" transform="translate(310,144)"/>
<path d="M0 0 C0.99 0 1.98 0 3 0 C3 0.66 3 1.32 3 2 C2.01 2 1.02 2 0 2 C0 1.34 0 0.68 0 0 Z " fill="#4E4E4E" transform="translate(250,144)"/>
<path d="M0 0 C0.99 0 1.98 0 3 0 C3 0.66 3 1.32 3 2 C2.01 2 1.02 2 0 2 C0 1.34 0 0.68 0 0 Z " fill="#515151" transform="translate(10,144)"/>
<path d="M0 0 C0.99 0 1.98 0 3 0 C3 0.66 3 1.32 3 2 C2.01 2 1.02 2 0 2 C0 1.34 0 0.68 0 0 Z " fill="#515151" transform="translate(1029,84)"/>
<path d="M0 0 C0.99 0 1.98 0 3 0 C3 0.66 3 1.32 3 2 C2.01 2 1.02 2 0 2 C0 1.34 0 0.68 0 0 Z " fill="#4F4F4F" transform="translate(969,84)"/>
<path d="M0 0 C0.99 0 1.98 0 3 0 C3 0.66 3 1.32 3 2 C2.01 2 1.02 2 0 2 C0 1.34 0 0.68 0 0 Z " fill="#515151" transform="translate(250,84)"/>
<path d="M0 0 C0.99 0 1.98 0 3 0 C3 0.66 3 1.32 3 2 C2.01 2 1.02 2 0 2 C0 1.34 0 0.68 0 0 Z " fill="#4F4F4F" transform="translate(190,84)"/>
<path d="M0 0 C0.99 0 1.98 0 3 0 C3 0.66 3 1.32 3 2 C2.01 2 1.02 2 0 2 C0 1.34 0 0.68 0 0 Z " fill="#4F4F4F" transform="translate(130,84)"/>
<path d="M0 0 C0.99 0 1.98 0 3 0 C3 0.66 3 1.32 3 2 C2.01 2 1.02 2 0 2 C0 1.34 0 0.68 0 0 Z " fill="#515151" transform="translate(1089,84)"/>
<path d="M0 0 C0.99 0 1.98 0 3 0 C3 0.66 3 1.32 3 2 C2.01 2 1.02 2 0 2 C0 1.34 0 0.68 0 0 Z " fill="#525252" transform="translate(909,84)"/>
<path d="M0 0 C0.99 0 1.98 0 3 0 C3 0.66 3 1.32 3 2 C2.01 2 1.02 2 0 2 C0 1.34 0 0.68 0 0 Z " fill="#515151" transform="translate(849,84)"/>
<path d="M0 0 C0.99 0 1.98 0 3 0 C3 0.66 3 1.32 3 2 C2.01 2 1.02 2 0 2 C0 1.34 0 0.68 0 0 Z " fill="#515151" transform="translate(789,84)"/>
<path d="M0 0 C0.99 0 1.98 0 3 0 C3 0.66 3 1.32 3 2 C2.01 2 1.02 2 0 2 C0 1.34 0 0.68 0 0 Z " fill="#515151" transform="translate(310,84)"/>
<path d="M0 0 C0.99 0 1.98 0 3 0 C3 0.66 3 1.32 3 2 C2.01 2 1.02 2 0 2 C0 1.34 0 0.68 0 0 Z " fill="#515151" transform="translate(70,84)"/>
<path d="M0 0 C0.99 0 1.98 0 3 0 C3 0.66 3 1.32 3 2 C2.01 2 1.02 2 0 2 C0 1.34 0 0.68 0 0 Z " fill="#515151" transform="translate(10,84)"/>
<path d="M0 0 C0.66 0 1.32 0 2 0 C2 0.99 2 1.98 2 3 C1.34 3 0.68 3 0 3 C0 2.01 0 1.02 0 0 Z " fill="#4A4A4A" transform="translate(670,24)"/>
<path d="M0 0 C0.66 0 1.32 0 2 0 C2 0.99 2 1.98 2 3 C1.34 3 0.68 3 0 3 C0 2.01 0 1.02 0 0 Z " fill="#555555" transform="translate(730,24)"/>
<path d="M0 0 C0.66 0 1.32 0 2 0 C2 0.99 2 1.98 2 3 C1.34 3 0.68 3 0 3 C0 2.01 0 1.02 0 0 Z " fill="#4A4A4A" transform="translate(610,24)"/>
<path d="M0 0 C0.66 0 1.32 0 2 0 C2 0.99 2 1.98 2 3 C1.34 3 0.68 3 0 3 C0 2.01 0 1.02 0 0 Z " fill="#4E4E4E" transform="translate(550,24)"/>
<path d="M0 0 C0.66 0 1.32 0 2 0 C2 0.99 2 1.98 2 3 C1.34 3 0.68 3 0 3 C0 2.01 0 1.02 0 0 Z " fill="#515151" transform="translate(490,24)"/>
<path d="M0 0 C0.66 0 1.32 0 2 0 C1.67 0.99 1.34 1.98 1 3 C0.67 2.01 0.34 1.02 0 0 Z " fill="#545454" transform="translate(310,683)"/>
<path d="M0 0 C0.66 0 1.32 0 2 0 C1.67 0.99 1.34 1.98 1 3 C0.67 2.01 0.34 1.02 0 0 Z " fill="#555555" transform="translate(190,683)"/>
<path d="M0 0 C0.66 0 1.32 0 2 0 C1.67 0.99 1.34 1.98 1 3 C0.67 2.01 0.34 1.02 0 0 Z " fill="#545454" transform="translate(250,623)"/>
<path d="M0 0 C0.66 0 1.32 0 2 0 C1.67 0.99 1.34 1.98 1 3 C0.67 2.01 0.34 1.02 0 0 Z " fill="#545454" transform="translate(1089,24)"/>
<path d="M0 0 C0.66 0 1.32 0 2 0 C1.67 0.99 1.34 1.98 1 3 C0.67 2.01 0.34 1.02 0 0 Z " fill="#545454" transform="translate(1029,24)"/>
<path d="M0 0 C0.66 0 1.32 0 2 0 C1.67 0.99 1.34 1.98 1 3 C0.67 2.01 0.34 1.02 0 0 Z " fill="#545454" transform="translate(310,24)"/>
<path d="M0 0 C0.66 0 1.32 0 2 0 C1.67 0.99 1.34 1.98 1 3 C0.67 2.01 0.34 1.02 0 0 Z " fill="#545454" transform="translate(250,24)"/>
<path d="M0 0 C0.66 0 1.32 0 2 0 C1.67 0.99 1.34 1.98 1 3 C0.67 2.01 0.34 1.02 0 0 Z " fill="#555555" transform="translate(190,24)"/>
<path d="M0 0 C0.66 0 1.32 0 2 0 C2 0.66 2 1.32 2 2 C1.34 2 0.68 2 0 2 C0 1.34 0 0.68 0 0 Z " fill="#4A4A4A" transform="translate(550,983)"/>
<path d="M0 0 C0.66 0 1.32 0 2 0 C2 0.66 2 1.32 2 2 C1.34 2 0.68 2 0 2 C0 1.34 0 0.68 0 0 Z " fill="#4B4B4B" transform="translate(490,983)"/>
<path d="M0 0 C0.66 0 1.32 0 2 0 C2 0.66 2 1.32 2 2 C1.34 2 0.68 2 0 2 C0 1.34 0 0.68 0 0 Z " fill="#4B4B4B" transform="translate(430,983)"/>
<path d="M0 0 C0.66 0 1.32 0 2 0 C2 0.66 2 1.32 2 2 C1.34 2 0.68 2 0 2 C0 1.34 0 0.68 0 0 Z " fill="#4C4C4C" transform="translate(370,983)"/>
<path d="M0 0 C0.66 0 1.32 0 2 0 C2 0.66 2 1.32 2 2 C1.34 2 0.68 2 0 2 C0 1.34 0 0.68 0 0 Z " fill="#4A4A4A" transform="translate(490,923)"/>
<path d="M0 0 C0.66 0 1.32 0 2 0 C2 0.66 2 1.32 2 2 C1.34 2 0.68 2 0 2 C0 1.34 0 0.68 0 0 Z " fill="#4B4B4B" transform="translate(430,923)"/>
<path d="M0 0 C0.66 0 1.32 0 2 0 C2 0.66 2 1.32 2 2 C1.34 2 0.68 2 0 2 C0 1.34 0 0.68 0 0 Z " fill="#4A4A4A" transform="translate(670,863)"/>
<path d="M0 0 C0.66 0 1.32 0 2 0 C2 0.66 2 1.32 2 2 C1.34 2 0.68 2 0 2 C0 1.34 0 0.68 0 0 Z " fill="#494949" transform="translate(610,863)"/>
<path d="M0 0 C0.66 0 1.32 0 2 0 C2 0.66 2 1.32 2 2 C1.34 2 0.68 2 0 2 C0 1.34 0 0.68 0 0 Z " fill="#4A4A4A" transform="translate(490,863)"/>
<path d="M0 0 C0.66 0 1.32 0 2 0 C2 0.66 2 1.32 2 2 C1.34 2 0.68 2 0 2 C0 1.34 0 0.68 0 0 Z " fill="#4A4A4A" transform="translate(430,863)"/>
<path d="M0 0 C0.66 0 1.32 0 2 0 C2 0.66 2 1.32 2 2 C1.34 2 0.68 2 0 2 C0 1.34 0 0.68 0 0 Z " fill="#4A4A4A" transform="translate(730,803)"/>
<path d="M0 0 C0.66 0 1.32 0 2 0 C2 0.66 2 1.32 2 2 C1.34 2 0.68 2 0 2 C0 1.34 0 0.68 0 0 Z " fill="#4A4A4A" transform="translate(670,803)"/>
<path d="M0 0 C0.66 0 1.32 0 2 0 C2 0.66 2 1.32 2 2 C1.34 2 0.68 2 0 2 C0 1.34 0 0.68 0 0 Z " fill="#494949" transform="translate(610,803)"/>
<path d="M0 0 C0.66 0 1.32 0 2 0 C2 0.66 2 1.32 2 2 C1.34 2 0.68 2 0 2 C0 1.34 0 0.68 0 0 Z " fill="#494949" transform="translate(550,803)"/>
<path d="M0 0 C0.66 0 1.32 0 2 0 C2 0.66 2 1.32 2 2 C1.34 2 0.68 2 0 2 C0 1.34 0 0.68 0 0 Z " fill="#4A4A4A" transform="translate(430,803)"/>
<path d="M0 0 C0.66 0 1.32 0 2 0 C2 0.66 2 1.32 2 2 C1.34 2 0.68 2 0 2 C0 1.34 0 0.68 0 0 Z " fill="#4B4B4B" transform="translate(370,803)"/>
<path d="M0 0 C0.66 0 1.32 0 2 0 C2 0.66 2 1.32 2 2 C1.34 2 0.68 2 0 2 C0 1.34 0 0.68 0 0 Z " fill="#4B4B4B" transform="translate(430,743)"/>
<path d="M0 0 C0.66 0 1.32 0 2 0 C2 0.66 2 1.32 2 2 C1.34 2 0.68 2 0 2 C0 1.34 0 0.68 0 0 Z " fill="#4C4C4C" transform="translate(370,743)"/>
<path d="M0 0 C0.66 0 1.32 0 2 0 C2 0.66 2 1.32 2 2 C1.34 2 0.68 2 0 2 C0 1.34 0 0.68 0 0 Z " fill="#4B4B4B" transform="translate(730,324)"/>
<path d="M0 0 C0.66 0 1.32 0 2 0 C2 0.66 2 1.32 2 2 C1.34 2 0.68 2 0 2 C0 1.34 0 0.68 0 0 Z " fill="#4A4A4A" transform="translate(610,324)"/>
<path d="M0 0 C0.66 0 1.32 0 2 0 C2 0.66 2 1.32 2 2 C1.34 2 0.68 2 0 2 C0 1.34 0 0.68 0 0 Z " fill="#4A4A4A" transform="translate(550,324)"/>
<path d="M0 0 C0.66 0 1.32 0 2 0 C2 0.66 2 1.32 2 2 C1.34 2 0.68 2 0 2 C0 1.34 0 0.68 0 0 Z " fill="#4B4B4B" transform="translate(490,324)"/>
<path d="M0 0 C0.66 0 1.32 0 2 0 C2 0.66 2 1.32 2 2 C1.34 2 0.68 2 0 2 C0 1.34 0 0.68 0 0 Z " fill="#4B4B4B" transform="translate(430,324)"/>
<path d="M0 0 C0.66 0 1.32 0 2 0 C2 0.66 2 1.32 2 2 C1.34 2 0.68 2 0 2 C0 1.34 0 0.68 0 0 Z " fill="#4C4C4C" transform="translate(370,324)"/>
<path d="M0 0 C0.66 0 1.32 0 2 0 C2 0.66 2 1.32 2 2 C1.34 2 0.68 2 0 2 C0 1.34 0 0.68 0 0 Z " fill="#4B4B4B" transform="translate(730,264)"/>
<path d="M0 0 C0.66 0 1.32 0 2 0 C2 0.66 2 1.32 2 2 C1.34 2 0.68 2 0 2 C0 1.34 0 0.68 0 0 Z " fill="#4B4B4B" transform="translate(670,264)"/>
<path d="M0 0 C0.66 0 1.32 0 2 0 C2 0.66 2 1.32 2 2 C1.34 2 0.68 2 0 2 C0 1.34 0 0.68 0 0 Z " fill="#4A4A4A" transform="translate(550,264)"/>
<path d="M0 0 C0.66 0 1.32 0 2 0 C2 0.66 2 1.32 2 2 C1.34 2 0.68 2 0 2 C0 1.34 0 0.68 0 0 Z " fill="#4A4A4A" transform="translate(490,264)"/>
<path d="M0 0 C0.66 0 1.32 0 2 0 C2 0.66 2 1.32 2 2 C1.34 2 0.68 2 0 2 C0 1.34 0 0.68 0 0 Z " fill="#4B4B4B" transform="translate(430,264)"/>
<path d="M0 0 C0.66 0 1.32 0 2 0 C2 0.66 2 1.32 2 2 C1.34 2 0.68 2 0 2 C0 1.34 0 0.68 0 0 Z " fill="#4C4C4C" transform="translate(370,264)"/>
<path d="M0 0 C0.66 0 1.32 0 2 0 C2 0.66 2 1.32 2 2 C1.34 2 0.68 2 0 2 C0 1.34 0 0.68 0 0 Z " fill="#4A4A4A" transform="translate(670,204)"/>
<path d="M0 0 C0.66 0 1.32 0 2 0 C2 0.66 2 1.32 2 2 C1.34 2 0.68 2 0 2 C0 1.34 0 0.68 0 0 Z " fill="#494949" transform="translate(610,204)"/>
<path d="M0 0 C0.66 0 1.32 0 2 0 C2 0.66 2 1.32 2 2 C1.34 2 0.68 2 0 2 C0 1.34 0 0.68 0 0 Z " fill="#4A4A4A" transform="translate(490,204)"/>
<path d="M0 0 C0.66 0 1.32 0 2 0 C2 0.66 2 1.32 2 2 C1.34 2 0.68 2 0 2 C0 1.34 0 0.68 0 0 Z " fill="#4B4B4B" transform="translate(730,144)"/>
<path d="M0 0 C0.66 0 1.32 0 2 0 C2 0.66 2 1.32 2 2 C1.34 2 0.68 2 0 2 C0 1.34 0 0.68 0 0 Z " fill="#4B4B4B" transform="translate(670,144)"/>
<path d="M0 0 C0.66 0 1.32 0 2 0 C2 0.66 2 1.32 2 2 C1.34 2 0.68 2 0 2 C0 1.34 0 0.68 0 0 Z " fill="#4A4A4A" transform="translate(610,144)"/>
<path d="M0 0 C0.66 0 1.32 0 2 0 C2 0.66 2 1.32 2 2 C1.34 2 0.68 2 0 2 C0 1.34 0 0.68 0 0 Z " fill="#4B4B4B" transform="translate(730,84)"/>
<path d="M0 0 C0.66 0 1.32 0 2 0 C2 0.66 2 1.32 2 2 C1.34 2 0.68 2 0 2 C0 1.34 0 0.68 0 0 Z " fill="#4B4B4B" transform="translate(670,84)"/>
<path d="M0 0 C0.66 0 1.32 0 2 0 C2 0.66 2 1.32 2 2 C1.34 2 0.68 2 0 2 C0 1.34 0 0.68 0 0 Z " fill="#4A4A4A" transform="translate(610,84)"/>
<path d="M0 0 C0.66 0 1.32 0 2 0 C2 0.66 2 1.32 2 2 C1.34 2 0.68 2 0 2 C0 1.34 0 0.68 0 0 Z " fill="#4A4A4A" transform="translate(550,84)"/>
</svg>
